<svg width="30" height="30" viewBox="0 0 30 30" fill="none" xmlns="http://www.w3.org/2000/svg">
<path d="M15 3.75C21.1875 3.75 26.25 8.8125 26.25 15C26.25 21.1875 21.1875 26.25 15 26.25C8.8125 26.25 3.75 21.1875 3.75 15C3.75 8.8125 8.8125 3.75 15 3.75ZM15 1.875C7.78125 1.875 1.875 7.78125 1.875 15C1.875 22.2188 7.78125 28.125 15 28.125C22.2188 28.125 28.125 22.2188 28.125 15C28.125 7.78125 22.2188 1.875 15 1.875Z" fill="black"/>
<path d="M22.5 14.0625H15.9375V7.5H14.0625V14.0625H7.5V15.9375H14.0625V22.5H15.9375V15.9375H22.5V14.0625Z" fill="black"/>
</svg>
