<svg width="23" height="19" viewBox="0 0 23 19" fill="none" xmlns="http://www.w3.org/2000/svg">
<g clip-path="url(#clip0_250_192)">
<path d="M8.05 9.2C10.5908 9.2 12.65 7.14078 12.65 4.6C12.65 2.05922 10.5908 0 8.05 0C5.50922 0 3.45 2.05922 3.45 4.6C3.45 7.14078 5.50922 9.2 8.05 9.2ZM11.27 10.35H10.6698C9.87203 10.7166 8.98438 10.925 8.05 10.925C7.11562 10.925 6.23156 10.7166 5.43016 10.35H4.83C2.16344 10.35 0 12.5134 0 15.18V16.675C0 17.6273 0.772656 18.4 1.725 18.4H11.6042C11.518 18.1556 11.482 17.8969 11.5108 17.6345L11.7552 15.4459L11.7983 15.047L12.0822 14.7631L14.8602 11.9852C13.9797 10.9897 12.7039 10.35 11.27 10.35ZM12.898 15.5717L12.6536 17.7639C12.6141 18.1305 12.9231 18.4395 13.2861 18.3964L15.4747 18.152L20.4305 13.1962L17.8537 10.6195L12.898 15.5717ZM22.7484 9.66359L21.3864 8.30156C21.0522 7.96734 20.5059 7.96734 20.1717 8.30156L18.8133 9.66L18.6659 9.80734L21.2463 12.3841L22.7484 10.8819C23.0827 10.5441 23.0827 10.0014 22.7484 9.66359Z" fill="black"/>
</g>
<defs>
<clipPath id="clip0_250_192">
<rect width="23" height="18.4" fill="white"/>
</clipPath>
</defs>
</svg>
