<svg width="24" height="24" viewBox="0 0 24 24" fill="none" xmlns="http://www.w3.org/2000/svg">
<path d="M12 2.40002C14.3632 2.40013 16.6435 3.27183 18.4041 4.84827C20.1648 6.42471 21.2822 8.59512 21.5424 10.944C21.145 10.8257 20.7296 10.7798 20.316 10.8084C20.0086 8.71036 18.9193 6.8061 17.2666 5.4776C15.6139 4.14909 13.52 3.49458 11.4049 3.64536C9.28979 3.79613 7.30991 4.74104 5.86237 6.29054C4.41482 7.84005 3.60666 9.87957 3.59998 12C3.59984 14.068 4.3625 16.0633 5.74193 17.6039C7.12135 19.1445 9.0206 20.1222 11.076 20.3496L10.8684 21.1836C10.8396 21.2988 10.8204 21.414 10.8084 21.5268C8.38642 21.2211 6.17186 20.0043 4.61513 18.1239C3.0584 16.2435 2.27641 13.8407 2.4282 11.4042C2.57999 8.96777 3.65417 6.68062 5.43226 5.00797C7.21034 3.33532 9.5588 2.40278 12 2.40002ZM8.58598 14.9124C9.28721 15.618 10.1898 16.0892 11.1696 16.2611C12.1494 16.433 13.1584 16.2972 14.058 15.8724L12.4116 17.5188C11.5512 17.5788 10.688 17.4526 9.88076 17.1488C9.07355 16.8451 8.34132 16.3708 7.73398 15.7584C7.62179 15.6454 7.55908 15.4925 7.55964 15.3333C7.56021 15.1741 7.624 15.0216 7.73698 14.9094C7.84996 14.7972 8.00288 14.7345 8.1621 14.7351C8.32132 14.7357 8.47379 14.7994 8.58598 14.9124ZM15 9.00002C15.3182 9.00002 15.6235 9.12645 15.8485 9.3515C16.0735 9.57654 16.2 9.88176 16.2 10.2C16.2 10.5183 16.0735 10.8235 15.8485 11.0486C15.6235 11.2736 15.3182 11.4 15 11.4C14.6817 11.4 14.3765 11.2736 14.1514 11.0486C13.9264 10.8235 13.8 10.5183 13.8 10.2C13.8 9.88176 13.9264 9.57654 14.1514 9.3515C14.3765 9.12645 14.6817 9.00002 15 9.00002ZM8.99998 9.00002C9.31824 9.00002 9.62346 9.12645 9.84851 9.3515C10.0735 9.57654 10.2 9.88176 10.2 10.2C10.2 10.5183 10.0735 10.8235 9.84851 11.0486C9.62346 11.2736 9.31824 11.4 8.99998 11.4C8.68172 11.4 8.37649 11.2736 8.15145 11.0486C7.92641 10.8235 7.79998 10.5183 7.79998 10.2C7.79998 9.88176 7.92641 9.57654 8.15145 9.3515C8.37649 9.12645 8.68172 9.00002 8.99998 9.00002ZM13.176 18.4524L18.972 12.6564C19.1805 12.4481 19.4279 12.2829 19.7003 12.1702C19.9726 12.0575 20.2645 11.9996 20.5592 11.9997C20.854 11.9998 21.1458 12.0579 21.418 12.1708C21.6903 12.2837 21.9377 12.4491 22.146 12.6576C22.3543 12.8661 22.5195 13.1136 22.6322 13.3859C22.7449 13.6583 22.8028 13.9501 22.8027 14.2449C22.8026 14.5396 22.7445 14.8314 22.6316 15.1037C22.5187 15.3759 22.3533 15.6233 22.1448 15.8316L16.3488 21.6264C16.0111 21.9642 15.5881 22.204 15.1248 22.32L13.3272 22.7688C13.1484 22.8134 12.9612 22.8109 12.7837 22.7617C12.6062 22.7125 12.4444 22.6183 12.3141 22.4881C12.1838 22.3579 12.0893 22.1962 12.04 22.0187C11.9906 21.8412 11.988 21.654 12.0324 21.4752L12.4824 19.6776C12.5975 19.2139 12.8373 18.7906 13.176 18.4536V18.4524Z" fill="white"/>
</svg>
