<svg width="24" height="24" viewBox="0 0 24 24" fill="none" xmlns="http://www.w3.org/2000/svg">
<path d="M20.3438 17.1563H18.6961C18.5836 17.1563 18.4781 17.2055 18.4078 17.2922C18.2438 17.4914 18.068 17.6836 17.8828 17.8664C17.1255 18.6245 16.2285 19.2286 15.2414 19.6453C14.2187 20.0773 13.1195 20.2989 12.0094 20.2969C10.8867 20.2969 9.79922 20.0766 8.77735 19.6453C7.79023 19.2286 6.89322 18.6245 6.13594 17.8664C5.3773 17.111 4.77239 16.2155 4.35469 15.2297C3.9211 14.2078 3.70313 13.1227 3.70313 12C3.70313 10.8774 3.92344 9.79222 4.35469 8.77035C4.77188 7.78363 5.37188 6.89535 6.13594 6.13363C6.9 5.37191 7.78828 4.77191 8.77735 4.35472C9.79922 3.92347 10.8867 3.70316 12.0094 3.70316C13.132 3.70316 14.2195 3.92113 15.2414 4.35472C16.2305 4.77191 17.1188 5.37191 17.8828 6.13363C18.068 6.31879 18.2414 6.51097 18.4078 6.70785C18.4781 6.79457 18.5859 6.84379 18.6961 6.84379H20.3438C20.4914 6.84379 20.5828 6.67972 20.5008 6.5555C18.7031 3.76175 15.5578 1.91254 11.9836 1.92191C6.36797 1.93597 1.86563 6.49457 1.92188 12.1032C1.97813 17.6227 6.47344 22.0782 12.0094 22.0782C15.5742 22.0782 18.7055 20.2313 20.5008 17.4446C20.5805 17.3203 20.4914 17.1563 20.3438 17.1563ZM22.4273 11.8524L19.1016 9.22738C18.9773 9.12894 18.7969 9.218 18.7969 9.37504V11.1563H11.4375C11.3344 11.1563 11.25 11.2407 11.25 11.3438V12.6563C11.25 12.7594 11.3344 12.8438 11.4375 12.8438H18.7969V14.625C18.7969 14.7821 18.9797 14.8711 19.1016 14.7727L22.4273 12.1477C22.4498 12.1302 22.4679 12.1077 22.4803 12.0822C22.4928 12.0566 22.4993 12.0285 22.4993 12C22.4993 11.9716 22.4928 11.9435 22.4803 11.9179C22.4679 11.8923 22.4498 11.8699 22.4273 11.8524Z" fill="white"/>
</svg>
