<svg width="24" height="24" viewBox="0 0 24 24" fill="none" xmlns="http://www.w3.org/2000/svg">
<path d="M18.6312 3.59998C19.1086 3.59998 19.5664 3.78962 19.904 4.12718C20.2416 4.46475 20.4312 4.92259 20.4312 5.39998V7.07278C20.4314 7.62556 20.2789 8.16766 19.9905 8.63924C19.7021 9.11082 19.289 9.49355 18.7968 9.74518L13.7688 12.3132C14.6531 12.7139 15.3735 13.4054 15.81 14.2726C16.2465 15.1398 16.3728 16.1303 16.1679 17.0793C15.9629 18.0283 15.439 18.8785 14.6835 19.4882C13.928 20.098 12.9865 20.4305 12.0156 20.4305C11.0447 20.4305 10.1032 20.098 9.34766 19.4882C8.59215 18.8785 8.06831 18.0283 7.86334 17.0793C7.65838 16.1303 7.78467 15.1398 8.22118 14.2726C8.65769 13.4054 9.37808 12.7139 10.2624 12.3132L5.2356 9.74398C4.77712 9.50984 4.38661 9.16165 4.10163 8.73292C3.81666 8.3042 3.6468 7.80934 3.6084 7.29598L3.6 7.07278V5.39998C3.6 4.92259 3.78964 4.46475 4.12721 4.12718C4.46477 3.78962 4.92261 3.59998 5.4 3.59998H18.6312ZM12.0156 13.134C11.6155 13.134 11.2193 13.2128 10.8496 13.3659C10.48 13.519 10.1441 13.7434 9.86119 14.0264C9.57827 14.3093 9.35384 14.6452 9.20072 15.0148C9.04761 15.3845 8.9688 15.7807 8.9688 16.1808C8.9688 16.5809 9.04761 16.9771 9.20072 17.3467C9.35384 17.7164 9.57827 18.0523 9.86119 18.3352C10.1441 18.6181 10.48 18.8425 10.8496 18.9957C11.2193 19.1488 11.6155 19.2276 12.0156 19.2276C12.8237 19.2276 13.5986 18.9066 14.17 18.3352C14.7414 17.7638 15.0624 16.9888 15.0624 16.1808C15.0624 15.3727 14.7414 14.5977 14.17 14.0264C13.5986 13.455 12.8237 13.134 12.0156 13.134ZM15.1392 4.79998H8.8872V10.2636L11.7432 11.7228C11.8277 11.766 11.9213 11.7885 12.0162 11.7885C12.1111 11.7885 12.2047 11.766 12.2892 11.7228L15.1392 10.266V4.79878V4.79998Z" fill="black"/>
</svg>
