<svg width="32" height="30" viewBox="0 0 32 30" fill="none" xmlns="http://www.w3.org/2000/svg">
<path d="M27 15.7125V14.2781L28.92 12.7031C29.2739 12.4107 29.5062 12.0104 29.5757 11.5729C29.6453 11.1354 29.5476 10.689 29.3 10.3125L26.94 6.56252C26.7646 6.27776 26.5125 6.04125 26.2088 5.8767C25.9052 5.71215 25.5607 5.62535 25.21 5.62502C24.9927 5.62345 24.7765 5.65512 24.57 5.71877L22.14 6.48752C21.7205 6.22615 21.2828 5.99125 20.83 5.78439L20.32 3.42189C20.2286 2.99027 19.9781 2.60255 19.6125 2.32661C19.2468 2.05067 18.7893 1.90408 18.32 1.91251H13.64C13.1707 1.90408 12.7132 2.05067 12.3476 2.32661C11.9819 2.60255 11.7315 2.99027 11.64 3.42189L11.13 5.78439C10.6739 5.9912 10.233 6.22609 9.81001 6.48752L7.43001 5.68127C7.22131 5.63029 7.00518 5.61129 6.79001 5.62502C6.43928 5.62535 6.09482 5.71215 5.79117 5.8767C5.48752 6.04125 5.23537 6.27776 5.06001 6.56252L2.70001 10.3125C2.4666 10.6884 2.37986 11.1288 2.45466 11.558C2.52946 11.9873 2.76113 12.3789 3.11001 12.6656L5.00001 14.2875V15.7219L3.11001 17.2969C2.75128 17.5856 2.51326 17.9842 2.43821 18.4218C2.36315 18.8595 2.4559 19.3079 2.70001 19.6875L5.06001 23.4375C5.23537 23.7223 5.48752 23.9588 5.79117 24.1233C6.09482 24.2879 6.43928 24.3747 6.79001 24.375C7.00736 24.3766 7.22353 24.3449 7.43001 24.2813L9.86001 23.5125C10.2795 23.7739 10.7172 24.0088 11.17 24.2156L11.68 26.5781C11.7715 27.0098 12.0219 27.3975 12.3876 27.6734C12.7532 27.9494 13.2107 28.0959 13.68 28.0875H18.4C18.8693 28.0959 19.3268 27.9494 19.6925 27.6734C20.0581 27.3975 20.3086 27.0098 20.4 26.5781L20.91 24.2156C21.3661 24.0088 21.807 23.7739 22.23 23.5125L24.65 24.2813C24.8565 24.3449 25.0727 24.3766 25.29 24.375C25.6407 24.3747 25.9852 24.2879 26.2888 24.1233C26.5925 23.9588 26.8446 23.7223 27.02 23.4375L29.3 19.6875C29.5334 19.3116 29.6202 18.8713 29.5454 18.442C29.4706 18.0127 29.2389 17.6211 28.89 17.3344L27 15.7125ZM25.21 22.5L21.78 21.4125C20.9771 22.0501 20.0594 22.5485 19.07 22.8844L18.36 26.25H13.64L12.93 22.9219C11.9484 22.5765 11.0357 22.0789 10.23 21.45L6.79001 22.5L4.43001 18.75L7.15001 16.5C6.96511 15.5296 6.96511 14.5361 7.15001 13.5656L4.43001 11.25L6.79001 7.50002L10.22 8.58752C11.0229 7.94991 11.9406 7.4515 12.93 7.11564L13.64 3.75002H18.36L19.07 7.07814C20.0516 7.42354 20.9643 7.92109 21.77 8.55002L25.21 7.50002L27.57 11.25L24.85 13.5C25.0349 14.4705 25.0349 15.4639 24.85 16.4344L27.57 18.75L25.21 22.5Z" fill="black"/>
<path d="M16 20.625C14.8133 20.625 13.6533 20.2951 12.6666 19.677C11.6799 19.0589 10.9109 18.1804 10.4567 17.1526C10.0026 16.1248 9.88378 14.9938 10.1153 13.9026C10.3468 12.8115 10.9182 11.8092 11.7574 11.0225C12.5965 10.2359 13.6656 9.70013 14.8295 9.48309C15.9933 9.26604 17.1997 9.37744 18.2961 9.80318C19.3925 10.2289 20.3295 10.9499 20.9888 11.8749C21.6481 12.7999 22 13.8875 22 15C22.008 15.7408 21.8583 16.4756 21.5596 17.1615C21.2609 17.8473 20.8193 18.4704 20.2605 18.9942C19.7018 19.5181 19.0371 19.9321 18.3056 20.2121C17.574 20.4922 16.7902 20.6325 16 20.625ZM16 11.25C15.4713 11.2385 14.9457 11.3276 14.4548 11.5119C13.9639 11.6963 13.5181 11.9721 13.1442 12.3226C12.7702 12.6732 12.4761 13.0912 12.2794 13.5514C12.0827 14.0116 11.9877 14.5044 12 15C11.9877 15.4956 12.0827 15.9884 12.2794 16.4486C12.4761 16.9088 12.7702 17.3268 13.1442 17.6774C13.5181 18.0279 13.9639 18.3037 14.4548 18.4881C14.9457 18.6724 15.4713 18.7615 16 18.75C16.5287 18.7615 17.0543 18.6724 17.5452 18.4881C18.0361 18.3037 18.4819 18.0279 18.8559 17.6774C19.2298 17.3268 19.524 16.9088 19.7206 16.4486C19.9173 15.9884 20.0123 15.4956 20 15C20.0123 14.5044 19.9173 14.0116 19.7206 13.5514C19.524 13.0912 19.2298 12.6732 18.8559 12.3226C18.4819 11.9721 18.0361 11.6963 17.5452 11.5119C17.0543 11.3276 16.5287 11.2385 16 11.25Z" fill="black"/>
</svg>
