<svg width="47" height="32" viewBox="0 0 47 32" fill="none" xmlns="http://www.w3.org/2000/svg">
<path d="M1.1514 21.96C1.1514 28.28 4.7114 31.44 11.8314 31.44C18.9514 31.44 22.5114 27.84 22.5114 20.64C22.5114 13.36 17.4714 6.56 7.39141 0.24L0.311404 2.87999L7.7514 12.6L7.5114 13.2C3.2714 14.08 1.1514 17 1.1514 21.96ZM25.1514 21.96C25.1514 28.28 28.7114 31.44 35.8314 31.44C42.9514 31.44 46.5114 27.84 46.5114 20.64C46.5114 13.36 41.4714 6.56 31.3914 0.24L24.3114 2.87999L31.7514 12.6L31.5114 13.2C27.2714 14.08 25.1514 17 25.1514 21.96Z" fill="black"/>
</svg>
