<?xml version="1.0" encoding="UTF-8" standalone="no"?>
<svg
   width="100"
   height="100"
   viewBox="0 0 100 100"
   fill="none"
   version="1.1"
   id="svg30"
   sodipodi:docname="avatar-1.svg"
   inkscape:version="1.2.1 (9c6d41e410, 2022-07-14)"
   xmlns:inkscape="http://www.inkscape.org/namespaces/inkscape"
   xmlns:sodipodi="http://sodipodi.sourceforge.net/DTD/sodipodi-0.dtd"
   xmlns="http://www.w3.org/2000/svg"
   xmlns:svg="http://www.w3.org/2000/svg">
  <sodipodi:namedview
     id="namedview18"
     pagecolor="#ffffff"
     bordercolor="#000000"
     borderopacity="0.25"
     inkscape:showpageshadow="2"
     inkscape:pageopacity="0.0"
     inkscape:pagecheckerboard="0"
     inkscape:deskcolor="#d1d1d1"
     showgrid="false"
     inkscape:zoom="8.04"
     inkscape:cx="50"
     inkscape:cy="50.062189"
     inkscape:window-width="1920"
     inkscape:window-height="991"
     inkscape:window-x="-9"
     inkscape:window-y="-9"
     inkscape:window-maximized="1"
     inkscape:current-layer="svg30" />
  <defs
     id="defs34" />
  <path
     d="M50 99.7151C77.6142 99.7151 100 78.5316 100 52.4004C100 26.2693 77.6142 5.0858 50 5.0858C22.3858 5.0858 0 26.2693 0 52.4004C0 78.5316 22.3858 99.7151 50 99.7151Z"
     fill="#FCE8E3"
     id="path2" />
  <path
     d="M64.7168 46.4501H35.0769V74.727H64.7168V46.4501Z"
     fill="#E2988F"
     id="path4" />
  <path
     d="M75.8061 26.6071C74.346 23.3013 71.3274 24.9118 71.3274 24.9118C73.0472 9.90878 64.9856 0 49.8297 0C34.6739 0 26.6391 9.90878 28.332 24.9118C28.332 24.9118 25.3492 23.2928 23.8534 26.6071C22.3575 29.9213 25.0626 37.6262 26.7107 40.1098C27.1897 40.8163 27.8796 41.3723 28.6928 41.7073C29.5061 42.0423 30.4062 42.1412 31.279 41.9915C31.279 41.9915 31.4671 47.196 32.2285 49.1201C32.9899 51.0442 38.2926 62.6143 49.767 62.6143C61.2414 62.6143 66.5352 51.0357 67.2966 49.1201C68.0579 47.2044 68.246 41.7796 68.246 41.7796C69.0991 41.9897 70.0006 41.9388 70.8212 41.6343C71.6418 41.3298 72.3395 40.7872 72.8143 40.0844C74.5968 37.6517 77.2661 29.9043 75.8061 26.6071Z"
     fill="#E2988F"
     id="path6" />
  <path
     d="M49.9013 62.9279C42.7354 62.9279 36.0174 55.6044 34.7544 54.138L35.2739 53.7397C36.51 55.1637 42.9862 62.2922 49.9013 62.2922C56.8164 62.2922 63.2478 55.2739 64.457 53.8668L64.9765 54.2652C63.7225 55.7146 57.1568 62.9279 49.9013 62.9279Z"
     fill="#C46966"
     id="path8" />
  <path
     d="M31.4828 37.9655L30.8125 38.0079L31.0948 42.0082L31.7651 41.9659L31.4828 37.9655Z"
     fill="#C46966"
     id="path10" />
  <path
     d="M68.3784 37.9886L68.0593 41.774L68.729 41.8245L69.048 38.0392L68.3784 37.9886Z"
     fill="#C46966"
     id="path12" />
  <path
     d="M25.9763 34.0578C24.9999 30.5316 25.1522 28.3617 26.451 27.2767L26.9078 27.7514C25.824 28.6838 25.7344 30.7096 26.6212 33.9391L25.9763 34.0578Z"
     fill="#C46966"
     id="path14" />
  <path
     d="M73.9699 34.0577L73.325 33.8967C74.2207 30.6672 74.1222 28.6414 73.0383 27.709L73.4952 27.2343C74.794 28.3616 74.9463 30.5316 73.9699 34.0577Z"
     fill="#C46966"
     id="path16" />
  <path
     d="M74.2652 10.9599C68.6669 6.72177 63.0685 2.41581 58.7511 1.36475C55.9065 0.430744 52.9119 -0.0281498 49.9012 0.0085554C39.6181 0.0085554 31.0191 3.00068 29.7023 12.2314C25.0087 14.0961 25.8775 21.3264 26.8718 24.5304C27.4169 24.5398 27.9516 24.6735 28.4304 24.9204C30.4279 26.1494 30.8847 29.4976 30.5712 32.8118C35.0499 32.8118 31.664 19.1226 35.1842 15.8084C48.5128 23.7506 66.3021 19.5633 66.3021 19.5633C66.8037 24.7424 66.0603 32.8287 69.2222 32.8118C68.9087 29.6417 68.8997 26.1664 71.363 24.9204C71.7104 22.1414 71.6682 19.3312 71.2376 16.5627C72.9819 15.1414 74.0687 13.1302 74.2652 10.9599Z"
     fill="#4C224B"
     id="path18" />
  <path
     d="M38.427 41.8475C36.589 41.8475 34.7924 41.3315 33.2645 40.3649C31.7366 39.3983 30.5461 38.0245 29.8435 36.4174C29.141 34.8102 28.9581 33.042 29.318 31.3365C29.6778 29.6309 30.5643 28.0648 31.8652 26.8362C33.166 25.6075 34.8228 24.7717 36.6258 24.4345C38.4288 24.0972 40.2971 24.2737 41.9941 24.9416C43.691 25.6095 45.1405 26.7388 46.159 28.1865C47.1775 29.6342 47.7193 31.3353 47.7157 33.0745C47.7086 35.4021 46.7271 37.6322 44.9862 39.2765C43.2452 40.9208 40.8867 41.8452 38.427 41.8475ZM38.427 24.8949C36.7227 24.8949 35.0567 25.3731 33.6396 26.2691C32.2226 27.1651 31.1181 28.4386 30.4659 29.9286C29.8137 31.4186 29.6431 33.0581 29.9755 34.6399C30.308 36.2216 31.1287 37.6746 32.3338 38.815C33.5389 39.9553 35.0743 40.732 36.7459 41.0466C38.4174 41.3612 40.15 41.1997 41.7245 40.5826C43.2991 39.9654 44.6449 38.9203 45.5917 37.5793C46.5386 36.2384 47.0439 34.6618 47.0439 33.0491C47.0416 30.8879 46.1327 28.8161 44.5169 27.2887C42.9012 25.7613 40.7108 24.9034 38.427 24.9034V24.8949Z"
     fill="white"
     id="path20" />
  <path
     d="M61.3666 41.8475C59.5287 41.8475 57.7321 41.3315 56.2042 40.3649C54.6763 39.3983 53.4858 38.0245 52.7832 36.4174C52.0807 34.8102 51.8978 33.042 52.2577 31.3365C52.6175 29.6309 53.504 28.0648 54.8048 26.8362C56.1057 25.6075 57.7625 24.7717 59.5655 24.4345C61.3685 24.0972 63.2368 24.2737 64.9338 24.9416C66.6307 25.6095 68.0802 26.7388 69.0987 28.1865C70.1172 29.6342 70.659 31.3353 70.6554 33.0745C70.6483 35.4021 69.6668 37.6322 67.9259 39.2765C66.1849 40.9208 63.8264 41.8452 61.3666 41.8475ZM61.3666 24.8949C59.6639 24.8966 57.9998 25.3756 56.5846 26.2715C55.1693 27.1674 54.0662 28.44 53.4146 29.9286C52.763 31.4173 52.592 33.0552 52.9234 34.6357C53.2547 36.2162 54.0734 37.6684 55.2762 38.809C56.479 39.9495 58.0119 40.7273 59.6814 41.0441C61.3509 41.3609 63.0822 41.2025 64.6567 40.589C66.2312 39.9755 67.5783 38.9343 68.5279 37.5969C69.4776 36.2595 69.9873 34.6858 69.9926 33.0745C69.9938 32.0019 69.7715 30.9395 69.3386 29.9482C68.9056 28.9569 68.2704 28.056 67.4693 27.2972C66.6682 26.5383 65.7169 25.9363 64.6697 25.5255C63.6226 25.1148 62.5002 24.9034 61.3666 24.9034V24.8949Z"
     fill="white"
     id="path22" />
  <path
     d="M52.4722 31.1589C52.0759 30.7714 51.597 30.4681 51.0672 30.2693C50.5375 30.0706 49.969 29.9808 49.3998 30.0062C48.996 30.0406 48.605 30.1578 48.2539 30.3495C47.9028 30.5412 47.6 30.803 47.3665 31.1165L46.8201 30.7351C47.1159 30.3542 47.4926 30.036 47.9261 29.8009C48.3596 29.5659 48.8402 29.4193 49.3371 29.3704C49.999 29.3395 50.6605 29.4413 51.2779 29.6691C51.8954 29.897 52.455 30.2458 52.92 30.6927L52.4722 31.1589Z"
     fill="white"
     id="path24" />
  <path
     d="M92.628 77.2614C83.6947 73.567 74.3412 70.8594 64.7527 69.192C57.6942 76.1595 41.3202 76.2527 35.0769 69.192C25.4761 70.8568 16.1105 73.5645 7.16577 77.2614C11.6264 84.204 17.9008 89.9429 25.3849 93.9255C32.869 97.908 41.3106 100 49.8969 100C58.4831 100 66.9248 97.908 74.4089 93.9255C81.8929 89.9429 88.1674 84.204 92.628 77.2614Z"
     fill="#94A5E4"
     id="path26" />
  <path
     d="M49.3908 78.5583C45.665 78.6163 41.9697 77.9151 38.5556 76.5023C35.1415 75.0895 32.0885 72.9981 29.604 70.3702L30.1146 69.9548C38.2926 78.9143 55.0698 81.9064 71.3184 70.26L71.7215 70.7686C64.1167 76.3036 56.3776 78.5583 49.3908 78.5583Z"
     fill="#6C82BC"
     id="path28" />
</svg>
