<?xml version="1.0" encoding="UTF-8" standalone="no"?>
<svg
   width="100"
   height="100"
   viewBox="0 0 100 100"
   fill="none"
   version="1.1"
   id="svg24"
   sodipodi:docname="avatar-3.svg"
   inkscape:version="1.2.1 (9c6d41e410, 2022-07-14)"
   xmlns:inkscape="http://www.inkscape.org/namespaces/inkscape"
   xmlns:sodipodi="http://sodipodi.sourceforge.net/DTD/sodipodi-0.dtd"
   xmlns="http://www.w3.org/2000/svg"
   xmlns:svg="http://www.w3.org/2000/svg">
  <sodipodi:namedview
     id="namedview61"
     pagecolor="#ffffff"
     bordercolor="#000000"
     borderopacity="0.25"
     inkscape:showpageshadow="2"
     inkscape:pageopacity="0.0"
     inkscape:pagecheckerboard="0"
     inkscape:deskcolor="#d1d1d1"
     showgrid="false"
     inkscape:zoom="8.04"
     inkscape:cx="50"
     inkscape:cy="50.062189"
     inkscape:window-width="1920"
     inkscape:window-height="991"
     inkscape:window-x="-9"
     inkscape:window-y="-9"
     inkscape:window-maximized="1"
     inkscape:current-layer="svg24" />
  <defs
     id="defs28" />
  <path
     d="M50 99.5476C77.6142 99.5476 100 78.2184 100 51.9075C100 25.5965 77.6142 4.26729 50 4.26729C22.3858 4.26729 0 25.5965 0 51.9075C0 78.2184 22.3858 99.5476 50 99.5476Z"
     fill="#FCE8E3"
     id="path2" />
  <path
     d="M50.3314 65.3239C58.5731 65.3239 65.2544 64.4221 65.2544 63.3097C65.2544 62.1973 58.5731 61.2956 50.3314 61.2956C42.0897 61.2956 35.4084 62.1973 35.4084 63.3097C35.4084 64.4221 42.0897 65.3239 50.3314 65.3239Z"
     fill="#94A5E4"
     id="path4" />
  <path
     d="M63.7045 46.0613H37.2534V74.5327H63.7045V46.0613Z"
     fill="#E2988F"
     id="path6" />
  <path
     d="M77.1945 27.6094C75.6897 24.1956 72.6173 25.8599 72.6173 25.8599C74.4088 10.2842 66.0784 0 50.4837 0C34.8889 0 26.5765 10.2842 28.35 25.8599C28.35 25.8599 25.2777 24.1529 23.7728 27.6094C22.268 31.066 25.0179 39.0714 26.7198 41.6233C27.9868 43.3719 29.57 44.892 31.3955 46.1125C31.5119 47.7659 31.8397 49.3996 32.3719 50.9772C33.1601 52.9658 42.0548 62.1319 44.6704 63.5401C48.101 65.4604 53.153 65.4604 56.2254 63.5401C58.8409 62.1319 67.7356 52.9658 68.5238 50.9772C69.0569 49.3994 69.3877 47.766 69.5091 46.1125C71.3443 44.8943 72.9368 43.3741 74.2117 41.6233C75.9495 39.0714 78.6994 31.0318 77.1945 27.6094Z"
     fill="#E2988F"
     id="path8" />
  <path
     d="M25.7973 35.3077C25.654 34.8041 24.4268 30.3405 26.1108 29.1286C26.2932 28.9958 26.5061 28.9064 26.732 28.8678C26.9579 28.8292 27.1902 28.8426 27.4096 28.9067C28.0144 29.1938 28.4796 29.6921 28.7085 30.2979L28.0814 30.5283C27.9294 30.0935 27.609 29.7303 27.1857 29.5127C27.066 29.4828 26.9408 29.4797 26.8197 29.5033C26.6985 29.527 26.5847 29.5769 26.487 29.6492C25.5107 30.3576 25.9317 33.3959 26.4333 35.137L25.7973 35.3077Z"
     fill="#C46966"
     id="path10" />
  <path
     d="M75.1704 35.3077L74.5254 35.137C74.8837 33.8824 75.5734 30.4515 74.4538 29.6407C74.3581 29.5713 74.247 29.5237 74.129 29.5015C74.011 29.4793 73.8892 29.4831 73.773 29.5127C73.3497 29.7303 73.0293 30.0935 72.8773 30.5283L72.2502 30.2979C72.4855 29.6876 72.961 29.1886 73.5759 28.9068C73.7916 28.8451 74.0194 28.8314 74.2415 28.867C74.4636 28.9025 74.6741 28.9862 74.8568 29.1116C76.5408 30.3406 75.2868 34.8042 75.1704 35.3077Z"
     fill="#C46966"
     id="path12" />
  <path
     d="M50.4835 0C34.8977 0 26.5763 10.2842 28.3499 25.8599C30.4191 27.14 30.8848 30.6136 30.5624 34.0531C30.5624 34.0531 29.8726 45.003 32.1389 50.1749C34.4051 55.3469 38.3284 63.4121 50.4835 63.3012C62.6297 63.4036 66.6068 55.3298 68.8282 50.1664C71.0497 45.003 70.3958 34.0445 70.3958 34.0445C70.0733 30.7587 70.0643 27.1571 72.5993 25.8513C74.3908 10.2757 66.0694 0 50.4835 0ZM67.5473 23.9396C67.5473 23.9396 67.2249 38.235 64.9228 41.3672C62.6208 44.4994 63.3284 37.5523 50.4835 37.4328C37.6387 37.3133 38.3553 44.525 36.0353 41.3672C33.7154 38.2094 33.4198 24.042 33.4198 23.9396C33.5721 20.7732 33.8945 17.7605 35.3187 16.412C37.164 14.7051 39.8601 14.9441 42.1711 15.5074C44.8583 16.156 47.6351 17.0436 50.4746 17.1119C53.4753 17.1887 56.3237 16.1389 59.208 15.4732C61.4473 14.9612 63.8748 14.7307 65.6484 16.412C67.0726 17.7605 67.395 20.7818 67.5473 23.9481V23.9396Z"
     fill="#4C224B"
     id="path14" />
  <path
     d="M95.7272 72.6125C83.1869 69.7192 65.2721 68.9511 65.2721 68.9511C56.0013 75.9666 43.6132 76.0605 35.4262 68.9511C35.4262 68.9511 17.7981 70.0436 5.37427 72.86C9.43607 80.9808 15.8284 87.8396 23.8115 92.6427C31.7946 97.4457 41.0421 99.9966 50.4835 100C59.976 99.9997 69.2722 97.4238 77.2844 92.5737C85.2967 87.7236 91.6937 80.7999 95.7272 72.6125Z"
     fill="#94A5E4"
     id="path16" />
  <path
     d="M35.4084 63.3012V70.4361C45.996 77.8783 55.9566 77.9807 65.2544 70.4361V63.3012C59.9785 66.5699 38.7764 66.1261 35.4084 63.3012Z"
     fill="#94A5E4"
     id="path18" />
  <path
     d="M49.9731 73.3209C48.531 73.3209 47.0799 73.2611 45.6826 73.1416C42.9148 72.9112 36.34 72.0663 35.095 69.2584L35.713 69.0109C36.4834 70.7178 40.1917 72.0407 45.7453 72.5015C53.3948 73.1416 62.9165 71.9724 64.9678 68.9597L65.5321 69.3096C63.7048 71.998 56.8255 73.3209 49.9731 73.3209Z"
     fill="#6C82BC"
     id="path20" />
  <path
     d="M50.027 67.3893C47.5174 67.3992 45.0089 67.2852 42.5117 67.0479C38.7138 66.6638 36.4476 66.0323 35.7668 65.1617L36.3043 64.7777C36.5641 65.102 37.6837 65.9128 42.5744 66.4163C50.3494 67.2015 62.1821 66.57 64.3856 64.7094L64.8335 65.1873C62.9972 66.715 56.315 67.3893 50.027 67.3893Z"
     fill="#6C82BC"
     id="path22" />
</svg>
