<?xml version="1.0" encoding="UTF-8" standalone="no"?>
<svg
   width="97"
   height="100"
   viewBox="0 0 97 100"
   fill="none"
   version="1.1"
   id="svg26"
   sodipodi:docname="avatar-5.svg"
   inkscape:version="1.2.1 (9c6d41e410, 2022-07-14)"
   xmlns:inkscape="http://www.inkscape.org/namespaces/inkscape"
   xmlns:sodipodi="http://sodipodi.sourceforge.net/DTD/sodipodi-0.dtd"
   xmlns="http://www.w3.org/2000/svg"
   xmlns:svg="http://www.w3.org/2000/svg">
  <sodipodi:namedview
     id="namedview98"
     pagecolor="#ffffff"
     bordercolor="#000000"
     borderopacity="0.25"
     inkscape:showpageshadow="2"
     inkscape:pageopacity="0.0"
     inkscape:pagecheckerboard="0"
     inkscape:deskcolor="#d1d1d1"
     showgrid="false"
     inkscape:zoom="8.04"
     inkscape:cx="48.507463"
     inkscape:cy="50.062189"
     inkscape:window-width="1920"
     inkscape:window-height="991"
     inkscape:window-x="-9"
     inkscape:window-y="-9"
     inkscape:window-maximized="1"
     inkscape:current-layer="svg26" />
  <defs
     id="defs30" />
  <path
     d="M48.415 99.9238C75.1538 99.9238 96.83 77.7537 96.83 50.4054C96.83 23.0572 75.1538 0.8871 48.415 0.8871C21.6761 0.8871 0 23.0572 0 50.4054C0 77.7537 21.6761 99.9238 48.415 99.9238Z"
     fill="#FCE8E3"
     id="path2" />
  <path
     d="M61.1651 43.965H35.5525V73.5589H61.1651V43.965Z"
     fill="#E2988F"
     id="path4" />
  <path
     d="M89.7438 76.2114C76.0658 70.0017 61.1215 67.7573 61.1215 67.7573C54.2869 75.0493 41.5543 75.1558 35.5089 67.7573C35.5089 67.7573 20.608 69.975 6.93872 76.2114C11.2606 83.4752 17.3376 89.4791 24.5849 93.6453C31.8322 97.8116 40.0059 100 48.3196 100C56.6332 100 64.8069 97.8116 72.0542 93.6453C79.3015 89.4791 85.3785 83.4752 89.7004 76.2114H89.7438Z"
     fill="#D85D63"
     id="path6" />
  <path
     d="M47.9728 76.6195H47.73C41.1121 76.5485 35.5351 73.5678 32.4214 68.4315L32.9678 68.0855C35.9688 73.0178 41.3463 75.8832 47.7126 75.9541H47.9728C54.5646 75.9541 60.5579 72.9468 63.6543 68.0766L64.2008 68.4403C60.9829 73.4969 54.8075 76.6195 47.9728 76.6195Z"
     fill="#B73D49"
     id="path8" />
  <path
     d="M72.5793 27.6511C72.5793 41.3303 65.2329 59.0991 48.979 58.762C31.4934 58.762 24.8495 42.9892 24.8495 29.31C21.7878 20.439 25.4654 10.7695 31.8316 8.99528C35.8301 2.19117 42.7688 0 49.7075 0C63.0819 0 76.2742 10.0598 72.5793 27.6511Z"
     fill="#4C224B"
     id="path10" />
  <path
     d="M72.5447 29.5673C71.1829 26.2318 68.3988 27.8729 68.3988 27.8729C68.9799 14.8147 62.4749 5.76619 48.3632 5.76619C34.2516 5.76619 27.8246 16.6244 28.3276 27.8729C28.3276 27.8729 25.5435 26.2318 24.1817 29.5673C22.82 32.9028 25.3093 40.7094 26.8445 43.1933C27.211 43.8722 27.8065 44.3916 28.5199 44.6544C29.2333 44.9172 30.0159 44.9055 30.7215 44.6215C30.7215 44.6215 31.2852 50.3345 31.9965 52.2773C32.7077 54.22 40.7566 63.1177 43.1245 64.4838C46.2295 66.3556 50.8091 66.3556 53.5933 64.4838C55.9611 63.1177 64.0014 54.2111 64.7299 52.2773C65.4585 50.3434 65.9962 44.5239 65.9962 44.5239C66.6881 44.8381 67.47 44.8758 68.1877 44.6295C68.9054 44.3831 69.5068 43.8707 69.8733 43.1933C71.3911 40.7094 73.9064 32.8939 72.5447 29.5673Z"
     fill="#E2988F"
     id="path12" />
  <path
     d="M48.4844 64.9273C42.7339 64.9273 38.4753 60.8467 35.7778 57.8305L36.2549 57.3869C38.8569 60.3499 42.9941 64.3064 48.4844 64.3064C53.6884 64.3064 57.4527 60.8023 60.4624 57.3869L60.9481 57.8305C57.8343 61.3168 53.9226 64.9273 48.4844 64.9273Z"
     fill="#C46966"
     id="path14" />
  <path
     d="M30.6428 41.0289L29.9963 41.1031L30.3879 44.6735L31.0343 44.5993L30.6428 41.0289Z"
     fill="#C46966"
     id="path16" />
  <path
     d="M66.0448 41.0473L65.6897 44.5147L66.3367 44.584L66.6918 41.1166L66.0448 41.0473Z"
     fill="#C46966"
     id="path18" />
  <path
     d="M25.9857 37.019C25.8556 36.5311 24.7454 32.1843 26.2806 30.9867C26.4503 30.8589 26.6468 30.7731 26.8545 30.7362C27.0622 30.6992 27.2755 30.7121 27.4775 30.7738C28.041 31.0452 28.4773 31.5329 28.6918 32.1311L28.0846 32.3706C27.9979 32.1488 27.6943 31.5456 27.278 31.4037C27.1709 31.3759 27.059 31.3735 26.9508 31.3966C26.8426 31.4196 26.7409 31.4675 26.6535 31.5367C25.7862 32.2109 26.1678 35.1561 26.6535 36.8594L25.9857 37.019Z"
     fill="#C46966"
     id="path20" />
  <path
     d="M70.7317 37.0191L70.1072 36.8416C70.5583 35.1561 70.9746 32.2109 70.0466 31.519C69.9617 31.4551 69.8638 31.4115 69.7602 31.3916C69.6566 31.3716 69.5499 31.3758 69.4481 31.4037C69.0684 31.6114 68.7778 31.956 68.6328 32.3706L68.0256 32.1311C68.2413 31.5308 68.6812 31.0426 69.2486 30.7738C69.4458 30.7118 69.6544 30.6979 69.8578 30.7333C70.0611 30.7688 70.2536 30.8525 70.4195 30.9779C71.9807 32.2198 70.8705 36.5666 70.7317 37.0191Z"
     fill="#C46966"
     id="path22" />
  <path
     d="M28.3274 27.8729C29.3306 23.7997 31.3855 20.0771 34.2773 17.0946C42.4217 26.7995 52.4915 33.1246 68.3985 27.8729L69.6562 23.7124C69.6562 23.7124 67.7394 14.9389 67.7394 14.6284C67.7394 14.3179 61.4338 8.30335 61.4338 8.30335L53.1767 4.88799H44.7288L38.0069 6.85736L32.0743 11.9937L28.3274 19.6938V27.8729Z"
     fill="#4C224B"
     id="path24" />
</svg>
