<?xml version="1.0" encoding="UTF-8" standalone="no"?>
<svg
   width="100"
   height="100"
   viewBox="0 0 100 100"
   fill="none"
   version="1.1"
   id="svg50"
   sodipodi:docname="avatar-2.svg"
   inkscape:version="1.2.1 (9c6d41e410, 2022-07-14)"
   xmlns:inkscape="http://www.inkscape.org/namespaces/inkscape"
   xmlns:sodipodi="http://sodipodi.sourceforge.net/DTD/sodipodi-0.dtd"
   xmlns="http://www.w3.org/2000/svg"
   xmlns:svg="http://www.w3.org/2000/svg">
  <sodipodi:namedview
     id="namedview46"
     pagecolor="#ffffff"
     bordercolor="#000000"
     borderopacity="0.25"
     inkscape:showpageshadow="2"
     inkscape:pageopacity="0.0"
     inkscape:pagecheckerboard="0"
     inkscape:deskcolor="#d1d1d1"
     showgrid="false"
     inkscape:zoom="8.04"
     inkscape:cx="50"
     inkscape:cy="50.062189"
     inkscape:window-width="1920"
     inkscape:window-height="991"
     inkscape:window-x="-9"
     inkscape:window-y="-9"
     inkscape:window-maximized="1"
     inkscape:current-layer="svg50" />
  <defs
     id="defs54" />
  <path
     d="M50 99.415C77.6142 99.415 100 78.8205 100 53.4158C100 28.0111 77.6142 7.41658 50 7.41658C22.3858 7.41658 0 28.0111 0 53.4158C0 78.8205 22.3858 99.415 50 99.415Z"
     fill="#FCE8E3"
     id="path2" />
  <path
     d="M83.4915 78.286C97.5994 69.4767 89.1795 55.0227 76.3883 35.6654C74.5865 32.8628 73.3201 29.7969 72.6442 26.6007C71.5877 21.9487 68.8154 17.7758 64.7972 14.7891C60.7789 11.8024 55.7619 10.1856 50.5961 10.2128C45.4304 10.24 40.4337 11.9094 36.4528 14.9381C32.472 17.9668 29.7517 22.1686 28.7531 26.8314C28.0894 30.1365 26.897 33.3329 25.2149 36.3164C13.4449 56.7944 1.92578 73.2839 18.7477 78.3437L83.4915 78.286Z"
     fill="#4C224B"
     id="path4" />
  <path
     d="M62.4689 47.944H39.0454V75.4347H62.4689V47.944Z"
     fill="#E2988F"
     id="path6" />
  <path
     d="M93.7476 77.5113C82.7211 73.2509 62.585 70.0453 62.585 70.0453C54.8637 76.0197 45.1002 75.9868 39.0271 70.0453C39.0271 70.0453 18.6581 72.8141 7.16577 76.5224C11.319 83.3286 17.2875 89.0499 24.5087 93.1472C31.7299 97.2445 39.9661 99.583 48.4413 99.9423C49.2295 99.9423 50.0267 100 50.824 100C59.4834 99.9941 67.9925 97.9182 75.5172 93.9759C83.042 90.0335 89.324 84.3599 93.7476 77.5113Z"
     fill="#F4BA5D"
     id="path8" />
  <path
     d="M39.0452 66.9139L34.4321 70.7294C34.4321 70.7294 37.1193 81.4422 42.6192 81.607C48.119 81.7718 50.6808 74.5036 50.6808 74.5036C45.4795 73.207 41.601 70.6772 39.0452 66.9139Z"
     fill="white"
     id="path10" />
  <path
     d="M62.4597 66.9139L67.0638 70.7294C67.0638 70.7294 64.3766 81.4422 58.8768 81.607C53.3769 81.7718 50.7793 74.4871 50.7793 74.4871C56.0403 73.2015 59.9337 70.6772 62.4597 66.9139Z"
     fill="white"
     id="path12" />
  <path
     d="M61.3684 12.9299C62.3196 7.53901 58.3404 2.45949 52.4807 1.58443C46.621 0.709371 41.0997 4.37015 40.1485 9.761C39.1973 15.1519 43.1765 20.2314 49.0362 21.1064C54.896 21.9815 60.4173 18.3207 61.3684 12.9299Z"
     fill="#4C224B"
     id="path14" />
  <path
     d="M50.7256 14.6517C35.6235 14.6517 32.1928 25.0762 32.5063 35.55C32.5063 43.0984 31.9331 45.5459 32.6944 47.4165C33.1154 50.0782 38.9646 63.6506 50.7256 63.6506C62.4866 63.6506 67.8342 50.7869 68.8732 47.4165C69.6346 45.5459 68.9449 43.0984 68.9449 35.55C69.2584 25.0432 65.8188 14.6682 50.7256 14.6517Z"
     fill="#E2988F"
     id="path16" />
  <path
     d="M50.7256 63.9555C46.3276 63.9555 42.3147 62.1261 38.7944 58.5167L39.2871 58.1047C42.6819 61.5822 46.5246 63.3375 50.7256 63.3375C54.9266 63.3375 58.8768 61.5822 62.2179 58.1211L62.7196 58.5332C59.2531 62.1261 55.2133 63.9555 50.7256 63.9555Z"
     fill="#C46966"
     id="path18" />
  <path
     d="M33.1691 35.756C33.1691 35.756 30.1325 32.1549 27.0154 34.2645C23.8982 36.3741 26.9347 48.3312 33.1691 46.2299C39.4034 44.1285 33.1691 35.756 33.1691 35.756Z"
     fill="#E2988F"
     id="path20" />
  <path
     d="M68.3358 35.756C68.3358 35.756 71.3723 32.1549 74.4895 34.2645C77.6066 36.3741 74.5701 48.3312 68.3358 46.2299C62.1014 44.1285 68.3358 35.756 68.3358 35.756Z"
     fill="#E2988F"
     id="path22" />
  <path
     d="M31.9967 41.328L31.3313 41.4134L32.1108 46.5552L32.7762 46.4698L31.9967 41.328Z"
     fill="#C46966"
     id="path24" />
  <path
     d="M69.4128 41.3247L68.8931 46.4694L69.562 46.5266L70.0817 41.3819L69.4128 41.3247Z"
     fill="#C46966"
     id="path26" />
  <path
     d="M28.5471 40.511C27.8574 38.6568 27.8216 37.3383 28.4396 36.5884C28.5981 36.3977 28.8031 36.2439 29.038 36.1394C29.2729 36.0349 29.5313 35.9827 29.7922 35.9869L29.7474 36.6049V36.2917V36.6049C29.5939 36.6022 29.442 36.6338 29.3048 36.697C29.1675 36.7601 29.0489 36.8529 28.9591 36.9675C28.6367 37.3713 28.4127 38.2695 29.1741 40.3049L28.5471 40.511Z"
     fill="#C46966"
     id="path28" />
  <path
     d="M73.1817 40.5108L72.5547 40.3048C73.3161 38.2611 73.0832 37.3547 72.7518 36.9591C72.6628 36.8484 72.5467 36.7585 72.4128 36.697C72.2789 36.6354 72.1311 36.6038 71.9814 36.6048V35.9867C72.2417 35.9809 72.4998 36.0316 72.7348 36.1347C72.9698 36.2378 73.1751 36.3903 73.334 36.58C73.9073 37.3382 73.8804 38.6567 73.1817 40.5108Z"
     fill="#C46966"
     id="path30" />
  <path
     d="M73.0744 45.7766C73.0726 46.0289 72.9897 46.275 72.836 46.484C72.6824 46.693 72.465 46.8554 72.2111 46.9508C71.9573 47.0462 71.6784 47.0703 71.4097 47.0201C71.1409 46.9699 70.8944 46.8476 70.7011 46.6687C70.5078 46.4897 70.3765 46.2621 70.3236 46.0146C70.2708 45.767 70.2988 45.5106 70.4041 45.2777C70.5095 45.0448 70.6874 44.8458 70.9156 44.7058C71.1437 44.5658 71.4118 44.4911 71.686 44.4911C71.8691 44.4911 72.0503 44.5244 72.2194 44.5891C72.3884 44.6538 72.5419 44.7486 72.6709 44.8681C72.7999 44.9876 72.902 45.1294 72.9713 45.2853C73.0405 45.4412 73.0755 45.6082 73.0744 45.7766Z"
     fill="white"
     id="path32" />
  <path
     d="M31.3509 45.7766C31.3509 46.0309 31.2689 46.2794 31.1154 46.4908C30.9618 46.7022 30.7436 46.867 30.4882 46.9643C30.2329 47.0616 29.952 47.0871 29.6809 47.0375C29.4098 46.9879 29.1608 46.8654 28.9654 46.6856C28.77 46.5059 28.6369 46.2768 28.583 46.0274C28.5291 45.778 28.5568 45.5196 28.6625 45.2847C28.7683 45.0498 28.9474 44.849 29.1772 44.7077C29.407 44.5665 29.6771 44.4911 29.9535 44.4911C30.3241 44.4911 30.6795 44.6265 30.9416 44.8676C31.2036 45.1087 31.3509 45.4357 31.3509 45.7766Z"
     fill="white"
     id="path34" />
  <path
     d="M31.7629 30.5233C44.2895 32.9397 57.2246 32.9397 69.7511 30.5233C69.7511 30.5233 69.993 13.5146 51.2631 12.946C32.5333 12.3774 31.7629 30.5233 31.7629 30.5233Z"
     fill="#4C224B"
     id="path36" />
  <path
     d="M61.2328 12.8801C54.4915 10.3663 46.9512 10.3663 40.2099 12.8801L39.968 12.3032C46.8625 9.73742 54.5712 9.73742 61.4657 12.3032L61.2328 12.8801Z"
     fill="#703870"
     id="path38" />
  <path
     d="M70.3151 30.2925C69.911 25.6954 68.0064 21.3178 64.8511 17.7338L65.3706 17.3465C68.6097 21.0241 70.5643 25.5168 70.9779 30.2348L70.3151 30.2925Z"
     fill="#703870"
     id="path40" />
  <path
     d="M31.6821 30.2925L31.0193 30.2348C31.4239 25.5178 33.3727 21.0242 36.6087 17.3465L37.1282 17.7338C33.9793 21.3198 32.0811 25.6972 31.6821 30.2925Z"
     fill="#703870"
     id="path42" />
  <path
     d="M37.7643 31.4791L37.0925 31.4297C37.3436 28.6582 37.9448 25.9231 38.884 23.2797L39.52 23.4692C38.601 26.068 38.0119 28.7558 37.7643 31.4791Z"
     fill="#703870"
     id="path44" />
  <path
     d="M61.8417 31.7511H61.1699C61.1852 29.5698 60.8656 27.3976 60.2205 25.2986L60.8743 25.1421C61.5279 27.2932 61.8534 29.5175 61.8417 31.7511Z"
     fill="#703870"
     id="path46" />
  <path
     d="M59.5664 23.2056C59.0737 21.7882 58.6707 20.8487 58.6707 20.8405L59.2887 20.6015C59.2887 20.6015 59.7276 21.5739 60.2382 23.016L59.5664 23.2056Z"
     fill="#703870"
     id="path48" />
</svg>
