<svg width="110" height="110" viewBox="0 0 110 110" fill="none" xmlns="http://www.w3.org/2000/svg">
<path d="M55 109.916C85.3757 109.916 110 85.529 110 55.446C110 25.363 85.3757 0.97583 55 0.97583C24.6243 0.97583 0 25.363 0 55.446C0 85.529 24.6243 109.916 55 109.916Z" fill="#FCE8E3"/>
<path d="M69.4843 48.3615H40.3881V80.9148H69.4843V48.3615Z" fill="#E2988F"/>
<path d="M101.95 83.8325C86.4116 77.0018 69.4348 74.533 69.4348 74.533C61.6705 82.5542 47.2062 82.6713 40.3386 74.533C40.3386 74.533 23.4109 76.9725 7.88245 83.8325C12.7922 91.8227 19.6957 98.4269 27.9287 103.01C36.1618 107.593 45.4472 110 54.8916 110C64.336 110 73.6214 107.593 81.8544 103.01C90.0874 98.4269 96.991 91.8227 101.901 83.8325H101.95Z" fill="#D85D63"/>
<path d="M54.4977 84.2814H54.2218C46.7039 84.2033 40.3683 80.9246 36.8311 75.2746L37.4518 74.894C40.861 80.3196 46.9699 83.4715 54.2021 83.5495H54.4977C61.986 83.5495 68.7945 80.2415 72.312 74.8843L72.9328 75.2844C69.2773 80.8465 62.2619 84.2814 54.4977 84.2814Z" fill="#B73D49"/>
<path d="M82.4509 30.4163C82.4509 45.4634 74.1053 65.009 55.6406 64.6382C35.7768 64.6382 28.2293 47.2882 28.2293 32.241C24.7512 22.4829 28.9289 11.8464 36.1611 9.89481C40.7033 2.41029 48.5858 0 56.4683 0C71.6618 0 86.6483 11.0658 82.4509 30.4163Z" fill="#4C224B"/>
<path d="M82.4116 32.5241C80.8647 28.855 77.7019 30.6602 77.7019 30.6602C78.362 16.2962 70.9722 6.34283 54.9412 6.34283C38.9102 6.34283 31.6091 18.2869 32.1806 30.6602C32.1806 30.6602 29.0177 28.855 27.4708 32.5241C25.9238 36.1931 28.7517 44.7803 30.4957 47.5126C30.912 48.2595 31.5885 48.8308 32.399 49.1199C33.2094 49.409 34.0984 49.3961 34.9 49.0837C34.9 49.0837 35.5404 55.368 36.3484 57.505C37.1564 59.642 46.3 69.4295 48.9899 70.9322C52.5173 72.9912 57.7198 72.9912 60.8826 70.9322C63.5725 69.4295 72.7064 59.6323 73.534 57.505C74.3617 55.3777 74.9726 48.9763 74.9726 48.9763C75.7585 49.322 76.6468 49.3634 77.4621 49.0924C78.2773 48.8215 78.9605 48.2578 79.3769 47.5126C81.1012 44.7803 83.9586 36.1834 82.4116 32.5241Z" fill="#E2988F"/>
<path d="M55.0788 71.4201C48.5462 71.4201 43.7084 66.9313 40.644 63.6135L41.186 63.1256C44.1419 66.3848 48.8418 70.737 55.0788 70.737C60.9907 70.737 65.2669 66.8825 68.686 63.1256L69.2377 63.6135C65.7005 67.4485 61.2567 71.4201 55.0788 71.4201Z" fill="#C46966"/>
<path d="M34.8106 45.1319L34.0762 45.2134L34.521 49.1409L35.2554 49.0593L34.8106 45.1319Z" fill="#C46966"/>
<path d="M75.0277 45.152L74.6243 48.9661L75.3592 49.0424L75.7626 45.2283L75.0277 45.152Z" fill="#C46966"/>
<path d="M29.52 40.7209C29.3722 40.1842 28.111 35.4027 29.855 34.0854C30.0479 33.9448 30.2711 33.8504 30.507 33.8098C30.743 33.7691 30.9852 33.7833 31.2147 33.8512C31.8549 34.1498 32.3505 34.6862 32.5942 35.3442L31.9045 35.6077C31.8059 35.3637 31.4611 34.7001 30.9881 34.544C30.8664 34.5135 30.7393 34.5109 30.6164 34.5362C30.4935 34.5616 30.378 34.6143 30.2787 34.6904C29.2934 35.432 29.7269 38.6717 30.2787 40.5453L29.52 40.7209Z" fill="#C46966"/>
<path d="M80.3521 40.721L79.6427 40.5258C80.1551 38.6717 80.628 35.432 79.5737 34.6709C79.4773 34.6006 79.3661 34.5527 79.2484 34.5307C79.1307 34.5088 79.0095 34.5133 78.8939 34.5441C78.4626 34.7725 78.1324 35.1516 77.9677 35.6077L77.278 35.3442C77.523 34.6839 78.0227 34.1469 78.6672 33.8512C78.8912 33.7829 79.1283 33.7677 79.3593 33.8067C79.5903 33.8456 79.8089 33.9378 79.9974 34.0756C81.771 35.4418 80.5098 40.2233 80.3521 40.721Z" fill="#C46966"/>
<path d="M32.1802 30.6603C33.3198 26.1798 35.6543 22.0849 38.9394 18.8041C48.1915 29.4795 59.631 36.4371 77.7015 30.6603L79.1302 26.0837C79.1302 26.0837 76.9527 16.4329 76.9527 16.0913C76.9527 15.7498 69.7895 9.13374 69.7895 9.13374L60.4094 5.37683H50.8125L43.1763 7.54315L36.4368 13.1931L32.1802 21.6632V30.6603Z" fill="#4C224B"/>
</svg>
