<?xml version="1.0" encoding="UTF-8" standalone="no"?>
<svg
   width="100"
   height="100"
   viewBox="0 0 100 100"
   fill="none"
   version="1.1"
   id="svg36"
   sodipodi:docname="avatar-4.svg"
   inkscape:version="1.2.1 (9c6d41e410, 2022-07-14)"
   xmlns:inkscape="http://www.inkscape.org/namespaces/inkscape"
   xmlns:sodipodi="http://sodipodi.sourceforge.net/DTD/sodipodi-0.dtd"
   xmlns="http://www.w3.org/2000/svg"
   xmlns:svg="http://www.w3.org/2000/svg">
  <sodipodi:namedview
     id="namedview82"
     pagecolor="#ffffff"
     bordercolor="#000000"
     borderopacity="0.25"
     inkscape:showpageshadow="2"
     inkscape:pageopacity="0.0"
     inkscape:pagecheckerboard="0"
     inkscape:deskcolor="#d1d1d1"
     showgrid="false"
     inkscape:zoom="8.04"
     inkscape:cx="50"
     inkscape:cy="50.062189"
     inkscape:window-width="1920"
     inkscape:window-height="991"
     inkscape:window-x="-9"
     inkscape:window-y="-9"
     inkscape:window-maximized="1"
     inkscape:current-layer="svg36" />
  <defs
     id="defs40" />
  <path
     d="M50 99.493C77.6142 99.493 100 77.6127 100 50.622C100 23.6313 77.6142 1.75101 50 1.75101C22.3858 1.75101 0 23.6313 0 50.622C0 77.6127 22.3858 99.493 50 99.493Z"
     fill="#FCE8E3"
     id="path2" />
  <path
     d="M79.8729 47.2068C83.411 27.07 74.9284 1.51389 51.6214 0.0517913C44.1868 -0.412229 36.9223 2.25808 33.1692 7.40608C20.3064 12.3615 19.2226 34.4418 20.6289 42.0413C24.5612 62.8784 5.56261 59.2976 10.3906 78.8127L50.0986 76.6764H51.6214L90.6307 77.1667C93.9539 62.4494 78.2695 63.4387 79.8729 47.2068Z"
     fill="#4C224B"
     id="path4" />
  <path
     d="M62.4506 44.694H39.0271V73.901H62.4506V44.694Z"
     fill="#E2988F"
     id="path6" />
  <path
     d="M93.7297 76.1073C82.7032 71.581 62.5939 68.1752 62.5939 68.1752C54.8637 74.5227 45.1002 74.4877 39.0271 68.1752C39.0271 68.1752 18.6581 71.1169 7.16577 75.0567C11.3197 82.2872 17.2883 88.3652 24.5093 92.7183C31.7304 97.0714 39.9663 99.5562 48.4413 99.9387C49.2385 99.9387 50.0267 100 50.8329 100C59.4879 99.9901 67.9919 97.7828 75.5117 93.5944C83.0314 89.4061 89.3091 83.3803 93.7297 76.1073Z"
     fill="#D85D63"
     id="path8" />
  <path
     d="M71.471 41.1658C70.5753 41.1658 69.8945 42.3915 69.8945 43.9149C69.8945 45.4383 70.6022 46.664 71.471 46.664C72.3399 46.664 73.0475 45.4295 73.0475 43.9149C73.0475 42.4002 72.3399 41.1658 71.471 41.1658ZM71.471 45.4558C70.8709 45.4558 70.3872 44.5803 70.3872 43.5647C70.3872 42.5491 70.8709 41.6736 71.471 41.6736C72.0712 41.6736 72.5549 42.5491 72.5549 43.5647C72.5549 44.5803 72.0712 45.4558 71.471 45.4558Z"
     fill="white"
     id="path10" />
  <path
     d="M28.3501 43.9149C28.3501 45.4295 29.0577 46.664 29.9266 46.664C30.7955 46.664 31.512 45.4295 31.512 43.9149C31.512 42.4002 30.8044 41.1658 29.9266 41.1658C29.0488 41.1658 28.3501 42.3915 28.3501 43.9149ZM28.8427 43.5647C28.8427 42.5228 29.3264 41.6736 29.9266 41.6736C30.5267 41.6736 31.0194 42.5491 31.0194 43.5647C31.0194 44.5803 30.5267 45.4558 29.9266 45.4558C29.3264 45.4558 28.8427 44.6153 28.8427 43.5647Z"
     fill="white"
     id="path12" />
  <path
     d="M50.7078 9.32344C35.6146 9.32344 32.175 20.3986 32.4974 31.5264C32.4974 39.546 32.4437 45.4557 33.2051 47.4431C33.9665 49.4306 39.2603 61.355 50.7078 61.3813C62.1642 61.3813 67.458 49.4218 68.2194 47.4431C68.9808 45.4645 68.927 39.5636 68.927 31.5264C69.2405 20.3986 65.8099 9.34095 50.7078 9.32344Z"
     fill="#E2988F"
     id="path14" />
  <path
     d="M50.7077 61.7053C48.4406 61.6865 46.2018 61.2102 44.1318 60.3063C42.0617 59.4023 40.205 58.0903 38.678 56.4522L39.1527 55.997C40.5856 57.5845 42.345 58.8586 44.316 59.7362C46.287 60.6138 48.4252 61.0751 50.5911 61.09C52.7569 61.1049 54.9015 60.673 56.885 59.8225C58.8684 58.9721 60.6459 57.7222 62.1015 56.1546L62.5762 56.6186C61.0542 58.2087 59.2172 59.4797 57.1768 60.3542C55.1365 61.2286 52.9355 61.6883 50.7077 61.7053Z"
     fill="#C46966"
     id="path16" />
  <path
     d="M33.1602 31.1411C33.1602 31.1411 30.1237 26.7636 27.0065 29.3288C23.8894 31.894 26.917 46.3837 33.1602 43.8272C39.4035 41.2708 33.1602 31.1411 33.1602 31.1411Z"
     fill="#E2988F"
     id="path18" />
  <path
     d="M68.318 31.1411C68.318 31.1411 71.3545 26.7636 74.4717 29.3288C77.5889 31.894 74.5613 46.3837 68.318 43.8272C62.0747 41.2708 68.318 31.1411 68.318 31.1411Z"
     fill="#E2988F"
     id="path20" />
  <path
     d="M32.9496 40.0715L32.2778 40.1174L32.6145 44.8189L33.2863 44.7729L32.9496 40.0715Z"
     fill="#C46966"
     id="path22" />
  <path
     d="M68.8398 38.7798L68.4446 43.966L69.1145 44.0147L69.5098 38.8286L68.8398 38.7798Z"
     fill="#C46966"
     id="path24" />
  <path
     d="M28.5559 36.8319C27.8394 34.5031 27.8304 32.8921 28.5559 32.0254C28.7038 31.8355 28.895 31.682 29.1142 31.5771C29.3335 31.4723 29.5748 31.4189 29.8189 31.4213V32.0779V31.7452V32.0779C29.6783 32.0799 29.5402 32.1143 29.4157 32.1781C29.2912 32.242 29.1839 32.3337 29.1023 32.4456C28.7978 32.8308 28.4037 33.899 29.2546 36.6481L28.5559 36.8319Z"
     fill="#C46966"
     id="path26" />
  <path
     d="M73.1726 36.8319L72.5366 36.6481C73.3786 33.899 72.9845 32.8308 72.68 32.4456C72.5984 32.3337 72.4911 32.242 72.3666 32.1781C72.2421 32.1143 72.104 32.0799 71.9634 32.0779V31.4213C72.2075 31.4189 72.4488 31.4723 72.6681 31.5771C72.8873 31.682 73.0785 31.8355 73.2264 32.0254C73.8982 32.8921 73.8892 34.5031 73.1726 36.8319Z"
     fill="#C46966"
     id="path28" />
  <path
     d="M31.2613 44.6327C31.151 44.6417 31.0402 44.6417 30.9299 44.6327H30.8582C30.6612 45.1755 30.3208 45.5082 29.9625 45.5082C29.3623 45.5082 28.8786 44.6327 28.8786 43.6171C28.8786 42.6015 29.3623 41.7348 29.9535 41.726C30.0224 41.726 30.0885 41.6992 30.1372 41.6516C30.1859 41.604 30.2133 41.5394 30.2133 41.4721C30.2133 41.4048 30.1859 41.3402 30.1372 41.2926C30.0885 41.245 30.0224 41.2182 29.9535 41.2182C29.0578 41.2182 28.386 42.4527 28.386 43.9673C28.386 45.4819 29.0936 46.7164 29.9625 46.7164C30.697 46.7164 31.3061 45.8409 31.4852 44.6852L31.2613 44.6327Z"
     fill="white"
     id="path30" />
  <path
     d="M71.4797 41.1658C71.4108 41.1658 71.3448 41.1925 71.296 41.2401C71.2473 41.2878 71.2199 41.3523 71.2199 41.4197C71.2199 41.487 71.2473 41.5516 71.296 41.5992C71.3448 41.6468 71.4108 41.6736 71.4797 41.6736C72.0799 41.6736 72.5546 42.5491 72.5546 43.5647C72.5546 44.5803 72.0709 45.4558 71.4708 45.4558C71.1393 45.4558 70.8437 45.1844 70.6467 44.7729C70.584 44.7729 70.5302 44.8604 70.4765 44.8954C70.4228 44.9305 70.1988 45.053 70.0645 45.1318C70.3242 46.0073 70.8527 46.664 71.4708 46.664C72.3665 46.664 73.0473 45.4295 73.0473 43.9149C73.0473 42.4002 72.3486 41.1745 71.4797 41.1658Z"
     fill="white"
     id="path32" />
  <path
     d="M32.3987 30.2481C32.3641 27.9619 32.8728 25.6989 33.8846 23.6374C34.8965 21.5758 36.3839 19.7719 38.23 18.3674C43.6044 27.5778 58.4199 30.7121 71.9455 26.1332C71.9455 26.1332 70.6287 4.00909 49.4894 5.30484C28.35 6.6006 32.3987 30.2481 32.3987 30.2481Z"
     fill="#4C224B"
     id="path34" />
</svg>
