<svg width="100" height="99" viewBox="0 0 100 99" fill="none" xmlns="http://www.w3.org/2000/svg">
<path d="M50 98.5476C77.6142 98.5476 100 77.2184 100 50.9074C100 24.5965 77.6142 3.26727 50 3.26727C22.3858 3.26727 0 24.5965 0 50.9074C0 77.2184 22.3858 98.5476 50 98.5476Z" fill="#FCE8E3"/>
<path d="M64 43H37V74H64V43Z" fill="#E2988F"/>
<path d="M93 75.3816C78.9595 69.2187 63.654 67 63.654 67C56.6338 74.2371 43.5555 74.3339 37.346 67C37.346 67 22.0405 69.1923 8 75.3816C12.4365 82.5929 18.677 88.5538 26.1206 92.6904C33.5642 96.8271 41.9602 99 50.5 99C59.0398 99 67.4358 96.8271 74.8794 92.6904C82.323 88.5538 88.5635 82.5929 93 75.3816V75.3816Z" fill="white"/>
<path d="M66 67V97C77.2586 93.1318 86.8126 85.4158 93 75.1943C84.329 71.4667 75.2736 68.7185 66 67V67Z" fill="#F4BA5D"/>
<path d="M34 67C25.0688 68.7323 16.349 71.4905 8 75.2242C13.9633 85.4251 23.1614 93.1288 34 97V67Z" fill="#F4BA5D"/>
<path d="M50.1666 76H49.9143C43.0385 75.9252 37.2441 72.785 34 67.3832L34.5767 67.0093C37.6857 72.2056 43.2818 75.2243 49.8962 75.2991C56.808 75.3645 63.1701 72.1963 66.4323 67L67 67.3832C63.6838 72.7196 57.2676 76 50.1666 76Z" fill="#EABFB9"/>
<path d="M75.5876 28.2036C74.1499 24.8248 71.1774 26.4709 71.1774 26.4709C72.8797 11.1277 64.9327 1 50.0087 1C35.0848 1 27.173 11.1277 28.8401 26.4709C28.8401 26.4709 25.9029 24.8162 24.4299 28.2036C22.9569 31.5911 25.6118 39.4663 27.2348 42.0047C27.6192 42.6933 28.2457 43.2208 28.9973 43.4887C29.7489 43.7565 30.574 43.7464 31.3186 43.4602C31.3186 43.4602 31.9183 49.2475 32.6681 51.2054C33.4178 53.1634 41.9205 62.1995 44.4167 63.577C47.689 65.4743 52.5137 65.4743 55.4597 63.577C57.9558 62.1995 66.4497 53.1807 67.1995 51.2054C67.9492 49.2301 68.5402 43.3562 68.5402 43.3562C69.2707 43.6751 70.0965 43.7132 70.8543 43.4629C71.6121 43.2127 72.2467 42.6923 72.6328 42.0047C74.3792 39.5096 77.0253 31.5911 75.5876 28.2036Z" fill="#E2988F"/>
<path d="M50.6391 65.9975C48.5672 66.0176 46.5254 65.57 44.7169 64.6993C43.1735 63.9266 39.6381 60.9054 37 58.3864L37.5025 58C40.1944 60.5576 43.6401 63.5094 45.0489 64.1816C48.2792 65.812 53.0528 65.8198 55.9332 64.1816C57.3689 63.4862 60.8235 60.5345 63.5065 58L64 58.3864C61.3709 60.9054 57.8265 63.9498 56.2832 64.6993C54.5845 65.5875 52.6258 66.038 50.6391 65.9975V65.9975Z" fill="#C46966"/>
<path d="M31.4935 40.2047L30.8281 40.2775L31.2461 43.9096L31.9114 43.8369L31.4935 40.2047Z" fill="#C46966"/>
<path d="M69.275 40.2136L68.8955 43.7448L69.5614 43.8128L69.9409 40.2816L69.275 40.2136Z" fill="#C46966"/>
<path d="M26.7983 36C26.5888 35.4546 24.861 30.5934 27.2564 29.3015C27.5179 29.1603 27.8206 29.0652 28.1408 29.0237C28.461 28.9822 28.79 28.9954 29.102 29.0623C29.5396 29.2123 29.9325 29.4239 30.2581 29.685C30.5838 29.946 30.8359 30.2515 31 30.5838L30.0837 30.8422C29.8502 30.369 29.3834 29.9765 28.7748 29.7417C28.606 29.7107 28.4298 29.7084 28.2596 29.7349C28.0894 29.7615 27.9298 29.8162 27.793 29.8948C26.4056 30.6604 27.0077 33.9522 27.7145 35.8469L26.7983 36Z" fill="#C46966"/>
<path d="M74.2185 36L73.2651 35.8097C73.9703 33.9064 74.5711 30.6518 73.1737 29.8715C73.0388 29.7984 72.8824 29.7492 72.717 29.7277C72.5515 29.7063 72.3815 29.7131 72.2203 29.7478C71.4367 29.9286 70.9142 30.8231 70.9142 30.8326L70 30.5757C70.1618 30.2444 70.4126 29.94 70.7378 29.6802C71.063 29.4204 71.456 29.2104 71.8938 29.0626C72.2001 28.9963 72.5232 28.9825 72.8381 29.0221C73.153 29.0617 73.451 29.1537 73.7091 29.291C76.1514 30.6233 74.4144 35.4576 74.2185 36Z" fill="#C46966"/>
<path d="M31.3541 35C35.6836 35 32.4105 20.4016 35.8135 16.8672C37.5453 15.0594 62.5875 15.1407 64.25 16.8672C67.653 20.4016 64.3712 35.0181 68.7094 35C68.4064 31.6193 68.3977 27.9132 70.779 26.5754C72.4415 10.5669 64.6483 0 49.9971 0C35.3459 0 27.5787 10.5669 29.2153 26.5754C31.2156 27.8861 31.6572 31.4566 31.3541 35Z" fill="#4C224B"/>
<path d="M50.5 39.0008C50.5 39.0008 39.4559 38.7974 39 45H62C61.5441 38.7974 50.5 39.0008 50.5 39.0008Z" fill="#4C224B"/>
</svg>
