<svg width="20" height="16" viewBox="0 0 20 16" fill="none" xmlns="http://www.w3.org/2000/svg">
<path d="M17 8.60833C16.7167 8.60833 16.479 8.51233 16.287 8.32033C16.095 8.12833 15.9993 7.891 16 7.60833C16 7.325 16.096 7.08733 16.288 6.89533C16.48 6.70333 16.7173 6.60767 17 6.60833H19C19.2833 6.60833 19.521 6.70433 19.713 6.89633C19.905 7.08833 20.0007 7.32567 20 7.60833C20 7.89167 19.904 8.12933 19.712 8.32133C19.52 8.51333 19.2827 8.609 19 8.60833H17ZM16.4 15.0083L14.8 13.8083C14.5667 13.6417 14.4333 13.425 14.4 13.1583C14.3667 12.8917 14.4333 12.6417 14.6 12.4083C14.7667 12.175 14.9833 12.0417 15.25 12.0083C15.5167 11.975 15.7667 12.0417 16 12.2083L17.6 13.4083C17.8333 13.575 17.9667 13.7917 18 14.0583C18.0333 14.325 17.9667 14.575 17.8 14.8083C17.6333 15.0417 17.4167 15.175 17.15 15.2083C16.8833 15.2417 16.6333 15.175 16.4 15.0083ZM16 3.00833C15.7667 3.175 15.5167 3.24167 15.25 3.20833C14.9833 3.175 14.7667 3.04167 14.6 2.80833C14.4333 2.575 14.3667 2.325 14.4 2.05833C14.4333 1.79167 14.5667 1.575 14.8 1.40833L16.4 0.208333C16.6333 0.0416665 16.8833 -0.025 17.15 0.00833335C17.4167 0.0416667 17.6333 0.175 17.8 0.408333C17.9667 0.641667 18.0333 0.891667 18 1.15833C17.9667 1.425 17.8333 1.64167 17.6 1.80833L16 3.00833ZM3 14.6083V10.6083H2C1.45 10.6083 0.979002 10.4123 0.587002 10.0203C0.195002 9.62833 -0.000664969 9.15767 1.69779e-06 8.60833V6.60833C1.69779e-06 6.05833 0.196002 5.58733 0.588002 5.19533C0.980002 4.80333 1.45067 4.60767 2 4.60833H6L9.475 2.50833C9.80834 2.30833 10.1457 2.30833 10.487 2.50833C10.8283 2.70833 10.9993 3 11 3.38333V11.8333C11 12.2167 10.829 12.5083 10.487 12.7083C10.145 12.9083 9.80767 12.9083 9.475 12.7083L6 10.6083H5V14.6083H3ZM12 10.9583V4.25833C12.45 4.65833 12.8127 5.146 13.088 5.72133C13.3633 6.29667 13.5007 6.92567 13.5 7.60833C13.5 8.29167 13.3623 8.921 13.087 9.49633C12.8117 10.0717 12.4493 10.559 12 10.9583Z" fill="#111111"/>
</svg>
