<svg width="24" height="24" viewBox="0 0 24 24" fill="none" xmlns="http://www.w3.org/2000/svg">
<path d="M19.5 12C19.5002 10.5406 19.0746 9.11283 18.2753 7.89173C17.4761 6.67063 16.3379 5.70924 15.0004 5.1254C13.6629 4.54155 12.1841 4.36062 10.7452 4.60478C9.3064 4.84895 7.97005 5.50759 6.9 6.49999H8.25C8.44891 6.49999 8.63968 6.579 8.78033 6.71966C8.92098 6.86031 9 7.05107 9 7.24999C9 7.4489 8.92098 7.63966 8.78033 7.78032C8.63968 7.92097 8.44891 7.99999 8.25 7.99999H5.25C5.05109 7.99999 4.86032 7.92097 4.71967 7.78032C4.57902 7.63966 4.5 7.4489 4.5 7.24999V4.24999C4.5 4.05107 4.57902 3.86031 4.71967 3.71966C4.86032 3.579 5.05109 3.49999 5.25 3.49999C5.44891 3.49999 5.63968 3.579 5.78033 3.71966C5.92098 3.86031 6 4.05107 6 4.24999V5.29199C7.58042 3.8789 9.60896 3.06909 11.728 3.0053C13.8471 2.94151 15.9207 3.62783 17.5832 4.94329C19.2458 6.25875 20.3906 8.11889 20.8159 10.1958C21.2412 12.2728 20.9196 14.4332 19.9079 16.2962C18.8962 18.1593 17.2592 19.6054 15.2856 20.3796C13.312 21.1538 11.1284 21.2065 9.1198 20.5283C7.11117 19.8501 5.40642 18.4846 4.30605 16.6725C3.20569 14.8604 2.78034 12.718 3.105 10.623C3.13511 10.4464 3.22754 10.2864 3.36551 10.1721C3.50348 10.0578 3.67786 9.99672 3.857 9.99999C4.317 9.99999 4.648 10.438 4.581 10.892C4.42989 11.9118 4.49067 12.9519 4.75954 13.9472C5.02842 14.9425 5.49961 15.8717 6.14369 16.6767C6.78777 17.4817 7.59092 18.1453 8.50296 18.6261C9.41501 19.1068 10.4164 19.3943 11.4445 19.4706C12.4727 19.547 13.5055 19.4106 14.4786 19.0698C15.4516 18.7291 16.344 18.1915 17.0999 17.4904C17.8559 16.7893 18.4591 15.94 18.8721 14.9953C19.285 14.0506 19.4988 13.031 19.5 12ZM12.5 7.74999C12.5 7.55107 12.421 7.36031 12.2803 7.21966C12.1397 7.079 11.9489 6.99999 11.75 6.99999C11.5511 6.99999 11.3603 7.079 11.2197 7.21966C11.079 7.36031 11 7.55107 11 7.74999V12.25C11 12.664 11.336 13 11.75 13H14.25C14.4489 13 14.6397 12.921 14.7803 12.7803C14.921 12.6397 15 12.4489 15 12.25C15 12.0511 14.921 11.8603 14.7803 11.7197C14.6397 11.579 14.4489 11.5 14.25 11.5H12.5V7.74999Z" fill="black"/>
</svg>
