<svg width="17" height="18" viewBox="0 0 17 18" fill="none" xmlns="http://www.w3.org/2000/svg">
<path d="M3.75 0L2.25 1.5L3.75 3L5.25 1.5L3.75 0ZM5.25 1.5L6.75 3L8.25 1.5L6.75 0L5.25 1.5ZM8.25 1.5L9.75 3L11.25 1.5L9.75 0L8.25 1.5ZM11.25 1.5L12.75 3L14.25 1.5L12.75 0L11.25 1.5ZM12.75 3H0V18H16.5V3H12.75ZM1.5 4.5H15V16.5H10.5V12.75H6V16.5H1.5V4.5ZM3 6V7.5H4.5V6H3ZM6 6V7.5H7.5V6H6ZM9 6V7.5H10.5V6H9ZM12 6V7.5H13.5V6H12ZM3 8.25V9.75H4.5V8.25H3ZM6 8.25V9.75H7.5V8.25H6ZM9 8.25V9.75H10.5V8.25H9ZM12 8.25V9.75H13.5V8.25H12ZM3 10.5V12H4.5V10.5H3ZM6 10.5V12H7.5V10.5H6ZM9 10.5V12H10.5V10.5H9ZM12 10.5V12H13.5V10.5H12ZM3 12.75V14.25H4.5V12.75H3ZM12 12.75V14.25H13.5V12.75H12ZM7.5 14.25H9V16.5H7.5V14.25Z" fill="#111111"/>
</svg>
