<svg xmlns="http://www.w3.org/2000/svg" viewBox="0 0 375.67 234.79"><path d="M191.38,62.6a87.1,87.1,0,0,1,83.08,60.94c-7-39.45-41.41-68.14-82.87-68.14-40.4,0-74.12,27.19-82.28,65.15A87.12,87.12,0,0,1,191.38,62.6Z" style="fill:#6a8caf"/><path d="M103.42,137.07a3.74,3.74,0,0,0-2.28-.65,7.87,7.87,0,0,0-4.75,1.75,16.94,16.94,0,0,0-4.27,5l.11-6.83-.41-.28-7.46,3.31V140l1.26.81a3.6,3.6,0,0,1,1.48,1.7,8.41,8.41,0,0,1,.43,3.11l.06,10.4c0,2.38-.26,3.9-.79,4.55a4.64,4.64,0,0,1-3.15,1.23v1l2.69-.08c1,0,2.51,0,4.57,0s3.73,0,4.82,0l3.06.08v-1q-4.11-.29-5.31-1.26c-.79-.65-1.19-2.23-1.19-4.75V149a12.05,12.05,0,0,1,1.31-6,3.87,3.87,0,0,1,3.4-2.26,4.18,4.18,0,0,1,1.82.5,13.26,13.26,0,0,1,2.26,1.46,9.23,9.23,0,0,0,2.43-1.89,3,3,0,0,0,.78-1.95A2,2,0,0,0,103.42,137.07ZM75.19,122.88l-7.77,0q-2.2,0-7.26,0t-7.91-.06v1q4.29.39,5.73,1.93c1,1,1.44,3.37,1.44,7v20.36c0,3.62-.5,5.93-1.5,6.91s-3,1.57-6,1.76l0,1,6.55-.08,4.27,0q3.62,0,11.09.11h.35v-1q-5.55-.48-7.32-2.09c-1.18-1.08-1.76-3.37-1.76-6.86v-8.56h7.08c3,0,5.08.47,6.35,1.43s1.91,2.53,1.91,4.73h.88c0-.56,0-1.17,0-1.82s0-1.62,0-2.89c0-1.51,0-3.07.08-4.69s.12-3.34.22-5.17l-1,0a5.5,5.5,0,0,1-2.21,4.51q-2,1.41-6.41,1.41H65.1V124.37H71q6.73,0,9.07,1.68t2.52,6.11h.88l.91-9.36Q79.18,122.86,75.19,122.88Zm49.56,35.8a9.87,9.87,0,0,1-4.2.91,10,10,0,0,1-7.62-3.31,11.77,11.77,0,0,1-3.06-8.32,14.41,14.41,0,0,1,.09-1.65,10.6,10.6,0,0,1,.3-1.57q4,0,8.57.08t9.54.25a9.05,9.05,0,0,0-3-6.58,10.57,10.57,0,0,0-7.24-2.41,12.63,12.63,0,0,0-9.49,4.08,13.88,13.88,0,0,0-3.89,10,12.84,12.84,0,0,0,3.64,9.34,12.08,12.08,0,0,0,9,3.74,12.83,12.83,0,0,0,6.38-1.65,16.53,16.53,0,0,0,5.26-4.88l-.85-.7A10.06,10.06,0,0,1,124.75,158.68Zm-11.86-19.62a5.67,5.67,0,0,1,4-1.66,4.41,4.41,0,0,1,3.38,1.52,9.19,9.19,0,0,1,2,4.39l-11.79.28A8.73,8.73,0,0,1,112.89,139.06ZM153.71,156a10.06,10.06,0,0,1-3.44,2.71,10.33,10.33,0,0,1-11.82-2.4,11.77,11.77,0,0,1-3.06-8.32,14.41,14.41,0,0,1,.09-1.65,10.6,10.6,0,0,1,.3-1.57q4,0,8.57.08t9.53.25a9,9,0,0,0-3-6.58,10.58,10.58,0,0,0-7.25-2.41,12.62,12.62,0,0,0-9.48,4.08,13.88,13.88,0,0,0-3.89,10,12.84,12.84,0,0,0,3.64,9.34,12.08,12.08,0,0,0,9,3.74,12.83,12.83,0,0,0,6.38-1.65,16.53,16.53,0,0,0,5.26-4.88Zm-15.3-16.91a5.67,5.67,0,0,1,4-1.66,4.41,4.41,0,0,1,3.38,1.52,9.19,9.19,0,0,1,2,4.39l-11.79.28A8.73,8.73,0,0,1,138.41,139.06Z" style="fill:#6a8caf"/><path d="M204.34,153.07l-1.27-18.52c-.06-1-.1-1.84-.13-2.47s0-1.08,0-1.38q0-3.52,1.5-5.14c1-1.08,2.6-1.66,4.82-1.73v-1c-.89,0-1.82.07-2.81.08s-2.45,0-4.37,0-3.24,0-4.14,0-1.73,0-2.47-.08v.87a2.28,2.28,0,0,1,.46.76,3.3,3.3,0,0,1,.13,1,9.15,9.15,0,0,1-1.18,3.94,2.12,2.12,0,0,1-.15.28L183.2,153.94,173.79,134l-.17-.4q-3.24-6.94-3.24-8.74a1.3,1.3,0,0,1,.16-.57,3.39,3.39,0,0,1,.49-.63v-.87c-.73,0-1.53.07-2.4.08s-2.22,0-4,0-3.2,0-4.14,0-1.83,0-2.65-.08v1a9,9,0,0,1,5,1.63,4.85,4.85,0,0,1,1.58,3.93c0,.59-.12,2-.34,4.24s-.54,4.88-.93,7.94c-.47,3.57-.91,6.62-1.32,9.13s-.8,4.41-1.15,5.7a6.25,6.25,0,0,1-6.38,5.33v1l4.72-.08,3.34,0q2.76,0,8.7.11h.53v-1.06c-3.08-.4-5.1-1-6.07-1.88s-1.46-2.4-1.46-4.63c0-1.68.1-4,.3-6.89s.48-6.06.85-9.43l.82-7.65,11.2,23.88c.06.14.5,1.11,1.31,2.94s1.6,3.57,2.37,5.22h.62q2.11-4.86,3.64-8.27t2.73-5.86l9.27-19.47,1.44,23.8c0,.18,0,.4,0,.64s0,.58,0,1q0,3.39-1.57,4.72c-1.05.9-3.07,1.51-6.07,1.85v1.06h.74q7.05-.11,10.23-.11l4.08,0,5.29.08v-1.06q-3.84-.37-5.21-1.75T204.34,153.07Zm33.07-13.4q-4.11-3.67-11-3.68a15.61,15.61,0,0,0-10.81,3.85,12.43,12.43,0,0,0-4.3,9.68,12.62,12.62,0,0,0,4.14,9.86q4.16,3.74,11,3.73a15.55,15.55,0,0,0,10.8-3.87,13.47,13.47,0,0,0,.19-19.57Zm-4.14,18.81a8.53,8.53,0,0,1-13.58-.11,14,14,0,0,1-2.65-8.85c0-3.79.85-6.8,2.56-9a8.48,8.48,0,0,1,13.56.14,14.1,14.1,0,0,1,2.67,8.87C235.83,153.29,235,156.28,233.27,158.48Zm87.83,2.23c-.68-.58-1-2.07-1-4.46V128.39c0-.73,0-2.32.09-4.76,0-1.21,0-2.17,0-2.86l-.64-.28L312.44,123v.45l1,.87a5.77,5.77,0,0,1,1.55,2,8.24,8.24,0,0,1,.45,3.08v25.49q0,4.36-1,5.47c-.66.73-2,1.19-4.08,1.35v1c.81,0,1.7-.06,2.69-.08s2.5,0,4.52,0,3.66,0,4.7,0,2,0,2.88.08v-1C323.12,161.64,321.78,161.3,321.1,160.71ZM261.92,137a3.67,3.67,0,0,0-2.28-.66,7.91,7.91,0,0,0-4.75,1.75,17.14,17.14,0,0,0-4.28,5l.12-6.83-.41-.28-7.47,3.3v.65l1.27.81a3.68,3.68,0,0,1,1.48,1.69,8.43,8.43,0,0,1,.43,3.12l.06,10.39c0,2.39-.27,3.9-.8,4.56a4.56,4.56,0,0,1-3.14,1.22v1c.8,0,1.7-.06,2.69-.08s2.51,0,4.57,0,3.72,0,4.82,0,2.12,0,3.06.08v-1c-2.75-.18-4.51-.6-5.31-1.25s-1.19-2.24-1.19-4.75v-6.87a12.05,12.05,0,0,1,1.31-6,3.87,3.87,0,0,1,3.39-2.27,4.24,4.24,0,0,1,1.83.51,13.54,13.54,0,0,1,2.26,1.45,8.83,8.83,0,0,0,2.43-1.89,3,3,0,0,0,.78-1.94A2,2,0,0,0,261.92,137Zm43.67,21.6a9.73,9.73,0,0,1-4.2.91,10,10,0,0,1-7.62-3.3,11.79,11.79,0,0,1-3.06-8.32,14.72,14.72,0,0,1,.09-1.66,11.12,11.12,0,0,1,.3-1.57q4,0,8.57.09c3,.05,6.18.14,9.54.25a9,9,0,0,0-3-6.58A10.58,10.58,0,0,0,299,136a12.65,12.65,0,0,0-9.48,4.07,13.91,13.91,0,0,0-3.89,10,12.87,12.87,0,0,0,3.64,9.35,12.08,12.08,0,0,0,9,3.74,12.73,12.73,0,0,0,6.38-1.66,16.49,16.49,0,0,0,5.26-4.87l-.85-.7A10,10,0,0,1,305.59,158.58ZM293.73,139a5.68,5.68,0,0,1,4-1.67,4.38,4.38,0,0,1,3.38,1.53,9.19,9.19,0,0,1,2,4.39l-11.79.28A8.69,8.69,0,0,1,293.73,139Zm-17.16,9.74-3.49-2.05a13.53,13.53,0,0,1-3.43-2.62,3.87,3.87,0,0,1-.9-2.51,4.08,4.08,0,0,1,1.24-3,4,4,0,0,1,3-1.24,4.84,4.84,0,0,1,3.53,1.43,13.21,13.21,0,0,1,2.67,4.71h1.32l-.35-5.58a18.14,18.14,0,0,0-3.47-1.4,12.25,12.25,0,0,0-3.35-.47,9.79,9.79,0,0,0-6.44,2.08,6.63,6.63,0,0,0-2.53,5.31,6,6,0,0,0,1.43,3.94,15,15,0,0,0,4.66,3.4l2.94,1.54a7.54,7.54,0,0,1,2.57,2.06,4.16,4.16,0,0,1,.87,2.54,4.74,4.74,0,0,1-5,5,5.93,5.93,0,0,1-4.45-2,11.27,11.27,0,0,1-2.66-5.5l-1.32.11.44,6.47a13.87,13.87,0,0,0,3.61,1.6,15.2,15.2,0,0,0,4,.53,11.38,11.38,0,0,0,7.28-2.25,7,7,0,0,0,2.83-5.71,5.28,5.28,0,0,0-1.06-3.3A13.31,13.31,0,0,0,276.57,148.71Z" style="fill:#75b79e"/><path d="M182.48,84.62c-.61.46-1.17.92-1.7,1.37.14-.06.28-.11.39-.17h0l.05,0c.07,0,.17-.13.32-.24a2.94,2.94,0,0,1,1.33-.52c.12-.09.29-.22.5-.35a2.28,2.28,0,0,1,1.14-.31.53.53,0,0,1,.18,0h0l.27,0a2.35,2.35,0,0,1,1-.37,5.13,5.13,0,0,1,.6-.4l.54-.28.05,0a2.31,2.31,0,0,1,1.44-.48,2.21,2.21,0,0,1,.72.11l.07,0,.07,0,.2.09.09,0,.23,0h.1a19.17,19.17,0,0,1,6-2.26A20.34,20.34,0,0,0,182.48,84.62Zm-4.63,7.22a6.3,6.3,0,0,1-.19-1.39,3.53,3.53,0,0,1,.14-1,.87.87,0,0,0,0-.32v-.36a46.83,46.83,0,0,0-4.29,5.42,4,4,0,0,0,4.41.31,1.45,1.45,0,0,1-.06-.3s0,0,0-.19h0a3.48,3.48,0,0,1,0-.35h0v0a.86.86,0,0,1,0-.15,2.66,2.66,0,0,1,.18-.85A3.3,3.3,0,0,1,177.85,91.84Z" style="fill:#75b79e"/><path d="M193.9,97.67a4.41,4.41,0,0,1-.85-2.65,6.43,6.43,0,0,1,1.71-4.13c.78-.89,1.56-1.69,2.27-2.4l0,0c-.42-.32-.67-.35-.84-.67s-.27-.72-.47-.72-.77,0-1-.3-.25-.81-.82-.81-.7.49-1.14.47-.23-.35-.92-.52-.9-.23-1-.53a1.12,1.12,0,0,0-.84-.71c-.33,0-1-.08-1-.2s-.57-.2-.84,0a4.17,4.17,0,0,1-.82.47c-.55.3-.6.57-1.07.57s-.57.4-.94.43-.8-.18-1.19.05-.55.59-1,.54-.84.45-1.31.67a4.46,4.46,0,0,0-1.14.57s-.08.3-.63.45-.66.2-.66.52a3.44,3.44,0,0,1-.1,1.12,3.26,3.26,0,0,0,.07,1.61,1.73,1.73,0,0,0,.6,1.11,1.32,1.32,0,0,0-.48,1c0,.54-.15.54.08.89a2.53,2.53,0,0,1,.52,1.36c.05.7,0,.87.35,1.37s.37.69,1.09.72a1.83,1.83,0,0,1,1.31.34c.7.38.62.67,1.42.7a11,11,0,0,1,2.33.12,5.05,5.05,0,0,0,2,.33c1,0,.92-.28,2-.35s1-.32,1.89-.47a4.07,4.07,0,0,0,1.68-.63C194.06,97.85,194,97.76,193.9,97.67Z" style="fill:#d4bd94"/><path d="M192.45,94.91a1.84,1.84,0,0,0-.86.31,2.51,2.51,0,0,1-1,.2h-.23a.15.15,0,0,0-.16.13.14.14,0,0,0,.14.16h.25a2.8,2.8,0,0,0,1.14-.22c.6-.29.29-.2.78-.28a3.27,3.27,0,0,0,.56-.13s0,0,0-.06a2.11,2.11,0,0,1,0-.25A2.86,2.86,0,0,1,192.45,94.91ZM190.66,97l.06,0h0a3.76,3.76,0,0,1,1.19-.28.77.77,0,0,0,.55-.18s.12-.11.61-.2l.17,0c0-.1-.05-.2-.07-.29L193,96a1.45,1.45,0,0,0-.76.27c-.08.06,0,.06-.37.1a4.25,4.25,0,0,0-1.29.31.15.15,0,0,0-.07.2A.15.15,0,0,0,190.66,97Zm4-6.66a.69.69,0,0,1-.48.12h-.49a1.61,1.61,0,0,0-.57.08,2.07,2.07,0,0,0-.4.2l-.12.07s0,0-.1-.07a1.19,1.19,0,0,0-.78-.26h-.05a.15.15,0,0,0-.13.16.15.15,0,0,0,.16.14h0a.89.89,0,0,1,.58.18.44.44,0,0,0,.3.15c.25,0,.28-.17.62-.29a1.37,1.37,0,0,1,.47-.07h.49a1,1,0,0,0,.68-.19c.31-.29.34-.38.58-.44l.27-.29a.14.14,0,0,0-.13,0C195.1,89.85,195,90,194.68,90.34Zm2.54-2s0,0-.05,0c-.48-.36-.67-.38-.77-.59s-.15-.32-.23-.48a.58.58,0,0,0-.47-.38c-.18,0-.72-.06-.79-.2a4.2,4.2,0,0,1-.26-.48.84.84,0,0,0-.76-.43,1.09,1.09,0,0,0-.76.29c-.17.13-.25.18-.35.18h0c-.14,0-.05,0-.17-.11a1.11,1.11,0,0,0-.69-.4,4.3,4.3,0,0,1-.66-.2c-.1-.06-.08,0-.12-.14a1.32,1.32,0,0,0-1.09-.91,4.26,4.26,0,0,1-.58,0l-.23,0h0a.37.37,0,0,0-.24-.17.88.88,0,0,0-.33,0,1,1,0,0,0-.64.2,3.76,3.76,0,0,1-.78.45,3.67,3.67,0,0,0-.59.41.5.5,0,0,1-.35.13,1,1,0,0,0-.67.25c-.14.12-.2.16-.29.17h-.05c-.17,0-.4-.06-.68-.06a1.12,1.12,0,0,0-.57.14c-.45.28-.58.54-.81.52h-.15c-.62,0-1,.54-1.36.7a4.67,4.67,0,0,0-1.2.61l-.06.05v.07h0s-.08.17-.43.27a2.26,2.26,0,0,0-.63.23.62.62,0,0,0-.23.54v.38a2.27,2.27,0,0,1-.09.66,2.43,2.43,0,0,0-.09.65,5,5,0,0,0,.16,1.1,2.09,2.09,0,0,0,.49,1,1.37,1.37,0,0,0-.37.91v.14c0,.22,0,.3-.05.48a.88.88,0,0,0,.16.45,2.22,2.22,0,0,1,.48,1.24c0,.63,0,1,.41,1.51a4.72,4.72,0,0,0,.45.57,1.3,1.3,0,0,0,.83.25c.76,0,.47-.06,1.2.31a3.82,3.82,0,0,1,.64.46,1.47,1.47,0,0,0,.89.27h1a4.49,4.49,0,0,1,1.26.11,5.61,5.61,0,0,0,2.07.34h0a3,3,0,0,0,1.06-.16,2.89,2.89,0,0,1,.94-.19,3.27,3.27,0,0,0,1.09-.23,3.67,3.67,0,0,1,.82-.25,4.46,4.46,0,0,0,1.82-.68,3.34,3.34,0,0,1-.35-.4,3.7,3.7,0,0,1-1.56.57,4.16,4.16,0,0,0-.91.28,3.05,3.05,0,0,1-1,.19,3.6,3.6,0,0,0-1.06.22,2.46,2.46,0,0,1-.9.13,4.92,4.92,0,0,1-1.93-.31,5.05,5.05,0,0,0-1.43-.14h-1a.86.86,0,0,1-.59-.16,3.92,3.92,0,0,0-.7-.5,2.1,2.1,0,0,0-1.43-.38c-.35,0-.44-.06-.51-.12a6,6,0,0,1-.39-.5c-.32-.42-.25-.47-.29-1.1l.29,0a1.69,1.69,0,0,1,.65.12,3.49,3.49,0,0,0,1.36.36c.49.07.63.16.88.17h0a1.21,1.21,0,0,0,.35-.07.15.15,0,0,0-.09-.29.65.65,0,0,1-.26.06c-.14,0-.33-.09-.84-.16a3.21,3.21,0,0,1-1.28-.34,2,2,0,0,0-.77-.14,1.52,1.52,0,0,0-.32,0,2.93,2.93,0,0,0-.53-1.32c-.08-.13-.08-.14-.08-.17s0-.2.05-.48c0,0,0-.07,0-.11v0a.88.88,0,0,1,.19-.5l0,0a2.54,2.54,0,0,0,1.37,1,4.25,4.25,0,0,0,1.18.21l.54,0c.44,0,.6-.13.7-.12a1.75,1.75,0,0,1,.52.15,3.69,3.69,0,0,0,1.46.35,3.55,3.55,0,0,0,.46,0,2,2,0,0,0,.42-.1c.09,0,.06,0,.1,0a1.82,1.82,0,0,1,.31,0,10.93,10.93,0,0,0,1.68.15,1.31,1.31,0,0,1,.49.14,1.14,1.14,0,0,0,.62.18h0a2.5,2.5,0,0,0,.55-.07,3.24,3.24,0,0,0,1.08-.43,1.34,1.34,0,0,1,.65-.21h.12l.21,0a1.82,1.82,0,0,0,.72-.17,5.61,5.61,0,0,1,.19-.67,1.82,1.82,0,0,1-.91.32h-.33a1.68,1.68,0,0,0-.89.28,3.33,3.33,0,0,1-1,.38,2.44,2.44,0,0,1-.44.06.76.76,0,0,1-.41-.11,1.53,1.53,0,0,0-.69-.2,10,10,0,0,1-1.6-.15,2.07,2.07,0,0,0-.42,0h0a.66.66,0,0,0-.26.06,1.23,1.23,0,0,1-.31.06,2.66,2.66,0,0,1-.39,0,3.19,3.19,0,0,1-1.26-.3,2.08,2.08,0,0,0-.72-.2h-.07l.15-.09c.39-.23.45-.15,1-.21a2.22,2.22,0,0,0,1.28-.42,1.17,1.17,0,0,1,.61-.14,2.94,2.94,0,0,1,.83.14.15.15,0,0,0,.09-.29h0a3.53,3.53,0,0,0-.92-.14,1.48,1.48,0,0,0-.77.18,2,2,0,0,1-1.15.38,1.84,1.84,0,0,0-1.07.24,3.89,3.89,0,0,1-.77.47l-.4,0a3.73,3.73,0,0,1-1.05-.19c-.72-.2-.88-.62-1.33-1a1.55,1.55,0,0,1-.52-1,4.29,4.29,0,0,1-.14-1,2,2,0,0,1,.06-.5.7.7,0,0,0,0-.14,2.71,2.71,0,0,0,.59.19c.39.09.37.12.47.2a1.58,1.58,0,0,0,.82.32c1.07.22,1.32.2,1.59.25h0a.14.14,0,0,0,.14-.12.15.15,0,0,0-.12-.18,13.08,13.08,0,0,1-1.58-.24c-.53-.12-.61-.19-.68-.25a1.1,1.1,0,0,0-.61-.28,2.48,2.48,0,0,1-.59-.19,2.62,2.62,0,0,0,0-.37c0-.14,0-.26,0-.38s0-.09,0-.12a2.25,2.25,0,0,1,.45-.15,1.12,1.12,0,0,0,.77-.55,7.58,7.58,0,0,1,1-.49c.51-.27.88-.67,1.13-.65h.15c.59,0,.77-.45,1.06-.58a.59.59,0,0,1,.32-.08c.19,0,.42.06.68.06h.08a1,1,0,0,0,.58-.27.53.53,0,0,1,.35-.15,1,1,0,0,0,.66-.22,3.18,3.18,0,0,1,.53-.38,3.82,3.82,0,0,0,.86-.5.52.52,0,0,1,.31-.09l.17,0a.35.35,0,0,0,.24.17,3.67,3.67,0,0,0,1,.13c.12,0,.59.37.59.53a.66.66,0,0,0,.39.47,3.81,3.81,0,0,0,.76.24c.31.08.34.14.42.23a.67.67,0,0,0,.55.29h.05a1.13,1.13,0,0,0,.66-.29.68.68,0,0,1,.45-.19c.19,0,.22.06.32.19a3.49,3.49,0,0,0,.3.54,1.62,1.62,0,0,0,1.15.39c.05.06.15.33.28.58.25.43.55.46.92.76h0Q197,88.48,197.22,88.31Zm-13.95,8.76a.15.15,0,0,0,.15.15,2.76,2.76,0,0,1,1.11.25,1,1,0,0,0,.51.15c.31,0,.54-.13.87-.16.5,0,.71-.27,1.15-.27a2.17,2.17,0,0,1,.4,0,3.15,3.15,0,0,0,.6.07c.34,0,.46-.11.5-.16a.16.16,0,0,0-.05-.21.15.15,0,0,0-.19,0s0,0-.26,0a2.72,2.72,0,0,1-.54-.07,2,2,0,0,0-.46,0c-.55,0-.79.24-1.18.27s-.63.15-.84.15a.73.73,0,0,1-.36-.11,2.84,2.84,0,0,0-1.26-.29A.15.15,0,0,0,183.27,97.07Zm2.8-1.47a.15.15,0,0,0,.15-.14.15.15,0,0,0-.15-.15,6.56,6.56,0,0,0-1.37.1,2.29,2.29,0,0,1-.47,0,7.8,7.8,0,0,1-1.28-.14,2.57,2.57,0,0,0-.45,0,.84.84,0,0,0-.61.15.14.14,0,0,0,0,.2.15.15,0,0,0,.21,0h0l.08,0a1.13,1.13,0,0,1,.35,0,2.15,2.15,0,0,1,.4,0,7.22,7.22,0,0,0,1.33.15,2.89,2.89,0,0,0,.53,0A6.54,6.54,0,0,1,186.07,95.6Zm4.83-7.39a.15.15,0,0,0,0-.21.8.8,0,0,0-.49-.23,5.23,5.23,0,0,1-.74.09c-.34,0-.3-.06-.38-.19a.55.55,0,0,0-.56-.4h-.08c-.64,0-.79.38-1,.61a.45.45,0,0,1-.31.16.83.83,0,0,0-.49.33,1,1,0,0,1-.38.3c-.1,0-.15,0-.15,0a.15.15,0,1,0,0,.3h0a1.1,1.1,0,0,0,.75-.46.55.55,0,0,1,.33-.22.78.78,0,0,0,.46-.24c.33-.33.3-.52.81-.53h.06c.28,0,.23.06.31.21a.59.59,0,0,0,.65.38,4.41,4.41,0,0,0,.74-.09c.05,0,.12,0,.3.16A.15.15,0,0,0,190.9,88.21Zm-5.67-.1a6.47,6.47,0,0,0-.69,0,.74.74,0,0,0-.64.48.15.15,0,0,0,.1.19h0a.15.15,0,0,0,.14-.1.24.24,0,0,1,.07-.11.47.47,0,0,1,.33-.16,6,6,0,0,1,.65,0,.15.15,0,0,0,0-.3Zm5,2.81a2.74,2.74,0,0,0-.94.28.25.25,0,0,1-.12,0c-.15,0-.43-.17-.91-.28a.76.76,0,0,0-.25,0,.68.68,0,0,0-.47.16.89.89,0,0,1-.38.16h-.13c-.32,0-.5-.21-.73-.46a1.46,1.46,0,0,0-.78-.39.14.14,0,0,0-.17.12.15.15,0,0,0,.12.17,1.26,1.26,0,0,1,.61.3,1.27,1.27,0,0,0,.95.56h.17a1,1,0,0,0,.5-.22.49.49,0,0,1,.31-.11l.18,0a7,7,0,0,0,1,.29.62.62,0,0,0,.23,0,2.72,2.72,0,0,1,.83-.27.14.14,0,0,0,.15-.14A.14.14,0,0,0,190.26,90.92Z" style="fill:#75b79e"/><path d="M218.87,69.59l-.64.18c-5.34,1.47-19,.3-23.7.84s-5.47.67-9.08,3.6-8.65,6.3-11,8.58-7.52,7.6-7.52,7.6c1.29,2.52,5,1.89,8.77-1.73,1.43-1.36,5.19-4.77,7.28-5.9,1.56-.85,6-3.38,9.87-3.61s9.41,1.49,9.27,4.34-3.42,4.71-6.4,8.22-.43,6.44.65,5.84,6.93-6.18,11.38-8,4.84-3.09,9-5.12c2.53-1.24,12.45-4.3,19.85-6.5A103.2,103.2,0,0,0,218.87,69.59Z" style="fill:#75b79e"/><path d="M125.45,98.07A26.68,26.68,0,0,1,136.67,93a23.71,23.71,0,0,1,13.41,1.92c2.8,1.23,2.95,1.29,5.51.25s10.12-4.66,11.61-3.45.51,4.87,1.75,5.73,3.07-.82,4.56.09-.13,9.37,2.61,11.35,7.5-4,9.79-2.67,1.12,3.27,4.07,4.85,8.68,4.09,5.28,8.92-9.4,8.83-9.09,13.7c0,0-1.51-2.09.75-6.24s9.69-8,6.71-11.45c-2.15-2.5-5.77-3-7-5.71-1.61-3.55-5.28-.43-8.9-.21-2.9.18-3.56-2.56-4.29-5.12s-1.2-5.68-2.54-6.34-2.91,0-3.74-2.09-1-3.36-3.34-2.78c-1.48.37-6,2.21-9.29,3.25-1.86.58-3.06,1.14-3.81.47C147.43,94.54,137.08,91.31,125.45,98.07Z" style="fill:#6a8caf"/><path d="M167,96.22s.65,3.23-1.78,3.69c0,0,3.15.53,3.1-2.45Z" style="fill:#6a8caf"/></svg>