<svg width="24" height="24" viewBox="0 0 24 24" fill="none" xmlns="http://www.w3.org/2000/svg">
<path d="M20.25 13.0403V11.8928L21.69 10.6328C21.9554 10.3988 22.1296 10.0785 22.1818 9.72858C22.2339 9.37861 22.1607 9.02147 21.975 8.72028L20.205 5.72028C20.0735 5.49247 19.8844 5.30326 19.6566 5.17162C19.4289 5.03998 19.1705 4.97055 18.9075 4.97028C18.7445 4.96903 18.5824 4.99436 18.4275 5.04528L16.605 5.66028C16.2903 5.45118 15.9621 5.26327 15.6225 5.09778L15.24 3.20778C15.1714 2.86248 14.9836 2.55231 14.7093 2.33155C14.4351 2.1108 14.092 1.99353 13.74 2.00028H10.23C9.87802 1.99353 9.53489 2.1108 9.26066 2.33155C8.98643 2.55231 8.79858 2.86248 8.73 3.20778L8.3475 5.09778C8.00545 5.26323 7.67473 5.45114 7.3575 5.66028L5.5725 5.01528C5.41597 4.97449 5.25388 4.9593 5.0925 4.97028C4.82946 4.97055 4.57111 5.03998 4.34337 5.17162C4.11564 5.30326 3.92652 5.49247 3.795 5.72028L2.025 8.72028C1.84994 9.02102 1.78489 9.37327 1.84099 9.7167C1.89709 10.0601 2.07084 10.3734 2.3325 10.6028L3.75 11.9003V13.0478L2.3325 14.3078C2.06345 14.5388 1.88494 14.8576 1.82865 15.2077C1.77236 15.5578 1.84192 15.9166 2.025 16.2203L3.795 19.2203C3.92652 19.4481 4.11564 19.6373 4.34337 19.7689C4.57111 19.9006 4.82946 19.97 5.0925 19.9703C5.25551 19.9715 5.41764 19.9462 5.5725 19.8953L7.395 19.2803C7.70965 19.4894 8.03788 19.6773 8.3775 19.8428L8.76 21.7328C8.82858 22.0781 9.01643 22.3882 9.29066 22.609C9.56489 22.8298 9.90802 22.947 10.26 22.9403H13.8C14.152 22.947 14.4951 22.8298 14.7693 22.609C15.0436 22.3882 15.2314 22.0781 15.3 21.7328L15.6825 19.8428C16.0245 19.6773 16.3553 19.4894 16.6725 19.2803L18.4875 19.8953C18.6424 19.9462 18.8045 19.9715 18.9675 19.9703C19.2305 19.97 19.4889 19.9006 19.7166 19.7689C19.9444 19.6373 20.1335 19.4481 20.265 19.2203L21.975 16.2203C22.1501 15.9195 22.2151 15.5673 22.159 15.2239C22.1029 14.8804 21.9292 14.5672 21.6675 14.3378L20.25 13.0403ZM18.9075 18.4703L16.335 17.6003C15.7328 18.1104 15.0445 18.5091 14.3025 18.7778L13.77 21.4703H10.23L9.6975 18.8078C8.96132 18.5315 8.27679 18.1334 7.6725 17.6303L5.0925 18.4703L3.3225 15.4703L5.3625 13.6703C5.22382 12.8939 5.22382 12.0991 5.3625 11.3228L3.3225 9.47028L5.0925 6.47028L7.665 7.34028C8.2672 6.8302 8.95545 6.43147 9.6975 6.16278L10.23 3.47028H13.77L14.3025 6.13278C15.0387 6.40909 15.7232 6.80713 16.3275 7.31028L18.9075 6.47028L20.6775 9.47028L18.6375 11.2703C18.7762 12.0466 18.7762 12.8414 18.6375 13.6178L20.6775 15.4703L18.9075 18.4703Z" fill="white"/>
<path d="M12 16.5C11.11 16.5 10.24 16.2361 9.49993 15.7416C8.75991 15.2471 8.18314 14.5443 7.84254 13.7221C7.50195 12.8998 7.41283 11.995 7.58647 11.1221C7.7601 10.2492 8.18868 9.44736 8.81802 8.81802C9.44736 8.18869 10.2492 7.7601 11.1221 7.58647C11.995 7.41283 12.8998 7.50195 13.7221 7.84254C14.5443 8.18314 15.2471 8.75991 15.7416 9.49994C16.2361 10.24 16.5 11.11 16.5 12C16.506 12.5926 16.3937 13.1805 16.1697 13.7292C15.9457 14.2779 15.6145 14.7763 15.1954 15.1954C14.7763 15.6145 14.2779 15.9457 13.7292 16.1697C13.1805 16.3937 12.5926 16.506 12 16.5ZM12 9C11.6035 8.99077 11.2093 9.06205 10.8411 9.20954C10.473 9.35704 10.1386 9.57768 9.85811 9.85812C9.57768 10.1386 9.35704 10.473 9.20954 10.8411C9.06205 11.2093 8.99076 11.6035 9 12C8.99076 12.3965 9.06205 12.7907 9.20954 13.1589C9.35704 13.527 9.57768 13.8615 9.85811 14.1419C10.1386 14.4223 10.473 14.643 10.8411 14.7905C11.2093 14.938 11.6035 15.0092 12 15C12.3965 15.0092 12.7907 14.938 13.1589 14.7905C13.527 14.643 13.8614 14.4223 14.1419 14.1419C14.4223 13.8615 14.643 13.527 14.7905 13.1589C14.938 12.7907 15.0092 12.3965 15 12C15.0092 11.6035 14.938 11.2093 14.7905 10.8411C14.643 10.473 14.4223 10.1386 14.1419 9.85812C13.8614 9.57768 13.527 9.35704 13.1589 9.20954C12.7907 9.06205 12.3965 8.99077 12 9Z" fill="white"/>
</svg>
